<?xml version="1.0" encoding="UTF-8" standalone="no"?>
<svg
   xmlns:dc="http://purl.org/dc/elements/1.1/"
   xmlns:cc="http://creativecommons.org/ns#"
   xmlns:rdf="http://www.w3.org/1999/02/22-rdf-syntax-ns#"
   xmlns:svg="http://www.w3.org/2000/svg"
   xmlns="http://www.w3.org/2000/svg"
   xmlns:sodipodi="http://sodipodi.sourceforge.net/DTD/sodipodi-0.dtd"
   xmlns:inkscape="http://www.inkscape.org/namespaces/inkscape"
   viewBox="0 0 382.66666 452"
   height="343.683675721"
   width="290.965230718"
   xml:space="preserve"
   id="svg2"
   version="1.1"
   inkscape:version="0.91 r13725"
   sodipodi:docname="sri_lanka_customs.svg">
<defs
     id="defs6"><linearGradient
       id="linearGradient5789"><stop
         style="stop-color:#231f87;stop-opacity:1;"
         offset="0"
         id="stop5791" /></linearGradient></defs><g
     id="g4196"><g
       id="g5795"><path
         id="path14"
         style="fill:#231f87;fill-opacity:1;fill-rule:evenodd;stroke:none"
         d="M 309.24266,251.01334 C 178.41466,106.77601 74.842131,253.176 74.842131,253.176 c 0,0 103.572529,-117.50533 234.400529,-2.16266"
         inkscape:connector-curvature="0" /><path
         id="path16"
         style="fill:#231f87;fill-opacity:1;fill-rule:evenodd;stroke:none"
         d="M 307.78533,283.97334 C 209.74133,156.28401 101.66826,254.392 79.623998,283.892 101.66826,311.04534 209.74133,400.82547 307.78533,283.97334 Z M 78.033331,287.156 72.583865,286.25067 C 83.569731,265.06134 206.17333,119.28134 315.23466,288.89334 l -6.00533,0 C 202.86666,424.86147 88.746931,304.14134 78.033331,287.156 l 0,0"
         inkscape:connector-curvature="0" /><path
         id="path20"
         style="fill:#231f87;fill-opacity:1;fill-rule:evenodd;stroke:none"
         d="m 193.41866,341.964 c 34.792,0 63.16933,-27.58666 63.16933,-61.40933 0,-33.824 -28.37733,-61.41066 -63.16933,-61.41066 -34.792,0 -63.17026,27.58666 -63.17026,61.41066 0,33.82267 28.37826,61.40933 63.17026,61.40933"
         inkscape:connector-curvature="0" /><path
         id="path22"
         style="fill:#ffffff;fill-opacity:1;fill-rule:evenodd;stroke:none"
         d="m 220.86399,253.85467 c -10,-0.42 -19.07066,-0.54267 -27.16399,-0.47467 0.0453,-3.07866 2.96666,-8.31866 2.96666,-8.60399 -6.24666,2.43333 -9.452,5.51733 -10.804,8.73066 -25.28,0.62267 -38.95733,3.02 -38.796,2.94 0.152,-0.076 15.452,5.39467 38.7,5.38133 1.836,5.69734 6.58,10.27334 6.524,10.32934 -0.784,-4.91467 -0.16533,-8.51867 0.39067,-10.49467 8.60533,-0.408 18.08933,-1.60667 28.15333,-4.06933 1.26267,3.90533 5.84933,7.23466 5.8,7.26933 -1.692,-5.43733 -1.46267,-11.01333 3.69867,-16.98133 -5.89067,1.59067 -8.584,3.74 -9.46934,5.97333"
         inkscape:connector-curvature="0" /><path
         id="path24"
         style="fill:#ffffff;fill-opacity:1;fill-rule:evenodd;stroke:none"
         d="m 136.48,299.85067 c -0.74934,-2.09067 -1.38,-4.236 -1.88534,-6.42667 l 7.30534,0 0,-2.99866 3.85466,0 0,-2.14134 -5.568,0 0,-2.356 9.63867,0 0,-5.784 4.284,0 0,5.784 13.49333,0 0,2.356 -2.57066,0 0,5.14 7.49733,0 0,1.928 5.14,0 0,2.57067 7.712,0 0,1.928 z m 48.544,38.74147 c -20.76267,-2.81187 -38.14134,-15.90147 -46.516,-33.8148 l 72.36133,0 0,2.356 -3.728,0 -22.11733,31.4588 0,0"
         inkscape:connector-curvature="0" /></g><path
       inkscape:connector-curvature="0"
       d="m 280.57066,190.61867 c -22.17867,-22.17866 -52.82,-35.896 -86.664,-35.896 -33.84533,0 -64.48533,13.71734 -86.664,35.896 -22.178662,22.17867 -35.896795,52.82 -35.896795,86.664 0,33.84533 13.718133,64.48507 35.896795,86.66427 22.17867,22.17853 52.81867,35.89679 86.664,35.89679 33.844,0 64.48533,-13.71826 86.664,-35.89679 22.17867,-22.1792 35.89733,-52.81894 35.89733,-86.66427 0,-33.844 -13.71866,-64.48533 -35.89733,-86.664 z m -86.664,-39.896 c 34.94933,0 66.58933,14.16534 89.492,37.068 22.90267,22.904 37.06933,54.54267 37.06933,89.492 0,34.948 -14.16666,66.5892 -37.06933,89.49187 -22.90267,22.90253 -54.54267,37.06919 -89.492,37.06919 -34.94933,0 -66.58893,-14.16666 -89.49213,-37.06919 -22.902532,-22.90267 -37.068665,-54.54387 -37.068665,-89.49187 0,-34.94933 14.166133,-66.588 37.068665,-89.492 22.9032,-22.90266 54.5428,-37.068 89.49213,-37.068 l 0,0"
       style="fill:#231f87;fill-opacity:1;fill-rule:nonzero;stroke:none"
       id="path26" /><path
       inkscape:connector-curvature="0"
       d="m 308.91733,162.27201 c -29.43334,-29.43334 -70.096,-47.63867 -115.01067,-47.63867 -44.91466,0 -85.578,18.20533 -115.011329,47.63867 -29.432799,29.43333 -47.637998,70.096 -47.637998,115.01066 0,44.91467 18.205199,85.5788 47.637998,115.01213 29.433329,29.43173 70.096669,47.63697 115.011329,47.63697 44.91467,0 85.57733,-18.20524 115.01067,-47.63697 29.43333,-29.43333 47.63866,-70.09746 47.63866,-115.01213 0,-44.91466 -18.20533,-85.57733 -47.63866,-115.01066 z M 193.90666,110.63334 c 46.01733,0 87.68,18.65333 117.83867,48.81067 30.15733,30.15733 48.81066,71.82 48.81066,117.83866 0,46.01893 -18.652,87.68133 -48.80933,117.84026 -30.16,30.15734 -71.82267,48.80884 -117.84,48.80884 -46.01866,0 -87.6816,-18.6531 -117.838929,-48.81044 C 45.909866,364.964 27.256799,323.3016 27.256799,277.28267 c 0,-46.01866 18.653067,-87.68133 48.810932,-117.83866 C 106.22506,129.28667 147.888,110.63334 193.90666,110.63334 l 0,0"
       style="fill:#231f87;fill-opacity:1;fill-rule:nonzero;stroke:none"
       id="path28" /><path
       inkscape:connector-curvature="0"
       d="m 136.18,63.365343 c -1.80667,-32.821333 5.56533,-53.291999 5.56533,-53.291999 -15.0756,4.996 -13.04173,53.147999 -13.04173,53.147999 0,0 2.80893,1.649333 7.4764,0.144 z m 6.37733,-1.870667 c 1.852,4.762667 -8.012,5.556 -10.70107,5.530667 -2.6912,-0.02533 -11.32453,-1.082667 -9.59426,-5.530667 0.4796,-1.234666 1.78226,-1.989333 3.49586,-1.372 1.33227,0.478667 0.926,1.869334 0.6952,2.433334 -0.1224,0.296 -0.17653,0.196 0.0704,0.432 2.24587,2.150666 9.27254,2.184 11.66454,0.09867 0.40933,-0.356 0.28533,-0.22 0.11866,-0.688 -0.22666,-0.633333 -0.46666,-1.837333 0.75467,-2.276 1.71333,-0.617333 3.016,0.137334 3.496,1.372 z m -14.662,16.457333 c -0.7188,-0.270666 -1.5208,0.09333 -1.7912,0.810667 -0.27133,0.718667 0.0928,1.521333 0.8104,1.792 1.95427,0.741333 3.848,1.090667 5.68707,1.081333 1.85706,-0.01067 3.6384,-0.388 5.34773,-1.098666 0.70933,-0.294667 1.04667,-1.108 0.752,-1.818667 -0.29467,-0.708 -1.10933,-1.044 -1.81867,-0.750667 -1.38666,0.577334 -2.81733,0.882667 -4.292,0.890667 -1.49426,0.008 -3.05733,-0.285333 -4.69533,-0.906667 z m -0.3688,-3.577333 c -0.72493,-0.254667 -1.5192,0.125333 -1.77493,0.850667 -0.25627,0.724 0.12546,1.518666 0.85,1.774666 2.06506,0.733334 4.06866,1.08 6.01346,1.069334 1.95827,-0.0093 3.83827,-0.382667 5.64627,-1.085334 0.716,-0.277333 1.072,-1.081333 0.79467,-1.797333 -0.276,-0.714667 -1.08134,-1.072 -1.79734,-0.794667 -1.5,0.582667 -3.05066,0.893334 -4.654,0.901334 -1.61666,0.0093 -3.30773,-0.288 -5.07813,-0.918667 z m -0.3656,-3.569333 c -0.72813,-0.244 -1.5156,0.148 -1.75933,0.876 -0.2432,0.728 0.14946,1.514666 0.87706,1.758666 2.18694,0.729334 4.3016,1.074667 6.3484,1.065334 2.06227,-0.01067 4.0436,-0.38 5.94894,-1.076 0.72133,-0.262667 1.09333,-1.058667 0.83333,-1.781334 -0.26267,-0.721333 -1.05867,-1.094666 -1.78133,-0.832 -1.616,0.590667 -3.28534,0.902667 -5.0124,0.912 -1.74267,0.008 -3.55934,-0.290666 -5.45467,-0.922666 z m -0.37027,-3.577333 c -0.7344,-0.228 -1.51413,0.181333 -1.74333,0.914666 -0.2276,0.733334 0.18187,1.514667 0.9152,1.742667 2.2948,0.721333 4.51867,1.064 6.67707,1.053333 2.17373,-0.01067 4.2564,-0.376 6.2564,-1.065333 0.728,-0.248 1.116,-1.04 0.86533,-1.768 -0.24933,-0.728 -1.04133,-1.116 -1.76933,-0.866667 -1.73334,0.597334 -3.52,0.914667 -5.36387,0.922667 -1.8604,0.01067 -3.80467,-0.292 -5.83747,-0.933333 z m 5.6208,36.16 c 1.61787,-0.136 1.12587,-2.87867 1.12587,-2.87867 0,0 0.212,-0.0693 1.40667,-0.0693 1.19733,0 2.04133,-0.68533 1.19733,-1.988 -0.844,-1.30267 -2.32267,-1.09733 -2.392,-0.99467 l -0.0707,-1.473331 c 0,0 1.05467,0.068 4.644,0 3.59067,-0.06933 4.29334,-2.674667 3.30934,-4.184 -0.98667,-1.506667 -2.18267,-2.330667 -3.44934,-2.124 -1.26666,0.205333 -1.47866,1.782667 -0.98666,3.017333 0.49466,1.233334 -0.21067,1.233334 -0.28,1.165334 -2.464,-0.549334 -2.04134,-2.332 -2.11067,-2.297334 1.54667,-2.982666 -0.42267,-5.452 -0.388,-5.452 1.30133,0.617334 4.46933,0.344 5.45467,-0.890666 0.98533,-1.234667 0.77333,-3.290667 -0.704,-3.84 -1.47734,-0.548 -2.67467,0.617333 -2.816,1.165333 -0.14,0.549334 -0.91467,1.852 -1.408,0.549334 -0.492,-1.302667 -2.53254,-1.234667 -2.53254,-1.234667 0,0 -2.04173,-0.068 -2.53386,1.234667 -0.49267,1.302666 -1.26774,0 -1.40827,-0.549334 -0.14067,-0.548 -1.33707,-1.713333 -2.8152,-1.165333 -1.4776,0.549333 -1.6896,2.605333 -0.7036,3.84 0.98493,1.234666 4.15307,1.508 5.45413,0.890666 0.036,0 -1.93533,2.469334 -0.3864,5.452 -0.0704,-0.03467 0.35147,1.748 -2.11146,2.297334 -0.0704,0.068 -0.77454,0.068 -0.28174,-1.165334 0.49267,-1.234666 0.28174,-2.812 -0.98493,-3.017333 -1.2672,-0.206667 -2.4636,0.617333 -3.44947,2.124 -0.98546,1.509333 -0.28133,4.114667 3.30774,4.184 3.59013,0.068 4.6464,0 4.6464,0 l -0.0713,1.473331 c -0.0704,-0.10266 -1.5484,-0.308 -2.3928,0.99467 -0.84426,1.30267 0,1.988 1.19694,1.988 1.19586,0 1.40786,0.0693 1.40786,0.0693 0,0 -0.49373,2.74267 1.126,2.87867 z M 170.88,54.749343 c -0.004,-0.02267 -1.27334,-8.289333 1.75333,-3.044 0.76,1.318667 1.44533,2.458667 1.988,3.18 0.23867,0.314667 0.148,0.913334 0.24667,0.742667 0.064,-0.113333 -0.0227,-0.818667 -0.13334,-1.713333 -0.20933,-1.682667 -0.49066,-3.949334 0.20934,-5.561334 0.12266,-0.281333 0.45066,-0.410666 0.732,-0.286666 0.28133,0.121333 0.41066,0.450666 0.288,0.730666 -0.576,1.328 -0.31734,3.425334 -0.124,4.981334 0.13733,1.1 0.244,1.965333 -0.005,2.402666 -0.51066,0.893333 -1.22933,0.529333 -2.10133,-0.626666 -0.56667,-0.749334 -1.276,-1.930667 -2.06267,-3.296 -0.0707,-0.121334 0.30667,2.314666 0.30667,2.322666 0.0467,0.301334 -0.16,0.585334 -0.46267,0.633334 -0.304,0.04667 -0.588,-0.161334 -0.63466,-0.465334 z m -3.45067,-28.394666 c -0.24533,-0.185333 -0.59467,-0.137333 -0.77867,0.108 -0.18533,0.245334 -0.13733,0.594667 0.108,0.78 0.009,0.0053 2.916,2.186667 5.70267,4.044 1.47333,0.982667 2.65867,1.397333 3.34933,1.433333 0.28667,0.01467 0.52534,-0.032 0.708,-0.129333 0.296,-0.158667 0.44534,-0.410667 0.43067,-0.74 -0.009,-0.276 -0.16533,-0.589333 -0.48133,-0.905333 -0.49734,-0.498667 -1.16,-1.701333 -1.39734,-2.530667 0.24667,0.170667 0.49334,0.344 0.736,0.514667 1.688,1.189333 3.208,2.258666 5.59067,2.449333 1.86,0.148 2.37467,-0.364 2.15733,-1.232 -0.13733,-0.553333 -0.79333,-1.22 -1.53066,-1.9 -0.28534,-0.264 -0.48134,-0.493333 -0.56667,-0.668 0.35333,-0.068 1.00133,0.0053 2.00933,0.273334 1.62,0.432 3.19467,0.592 4.40134,0.493333 1.376,-0.113333 2.34933,-0.584 2.572,-1.401333 0.08,-0.296 -0.0947,-0.601334 -0.38934,-0.682667 -0.29733,-0.08 -0.60266,0.09467 -0.68266,0.390667 -0.084,0.310666 -0.69067,0.508 -1.58667,0.582666 -1.09333,0.08933 -2.53333,-0.06 -4.03067,-0.458666 -1.21333,-0.322667 -2.044,-0.390667 -2.55066,-0.281334 -0.34934,0.076 -0.59467,0.237334 -0.74534,0.468 -0.16533,0.252 -0.192,0.542667 -0.0933,0.858667 0.11467,0.373333 0.43333,0.804 0.90933,1.244 0.604,0.557333 1.136,1.078666 1.204,1.350666 0.0107,0.04267 -0.272,-0.09067 -0.99066,-0.148 -2.08,-0.166666 -3.48,-1.153333 -5.03734,-2.249333 -0.252,-0.177333 -0.51066,-0.358666 -0.78133,-0.545333 -0.43733,-0.298667 -0.78667,-0.409333 -1.06,-0.38 -0.43733,0.04667 -0.66,0.318667 -0.71333,0.746667 -0.0293,0.230666 0.007,0.514666 0.0893,0.821333 0.24267,0.893333 0.944,2.202666 1.53467,2.893333 -0.56,-0.130667 -1.392,-0.5 -2.43467,-1.194667 -2.78667,-1.857333 -5.64267,-3.999999 -5.652,-4.005333 z m -1.328,3.873333 c -0.0773,1.72 0.828,2.262667 0.99333,2.348 l 0.008,0.004 0,0 0.007,0.004 c 0.14933,0.06 0.29867,0.064 0.432,0.02133 0.14667,-0.04667 0.284,-0.149334 0.39067,-0.294667 0.12,-0.16 0.20266,-0.370667 0.22666,-0.618667 0.0387,-0.394666 -0.0693,-0.876 -0.4,-1.398666 -0.376,-0.596 -0.74533,-0.986667 -1.06133,-1.153333 -0.104,-0.05467 -0.18667,-0.07867 -0.24133,-0.068 -0.032,0.0067 -0.0707,0.04 -0.112,0.101333 -0.132,0.194667 -0.22,0.542667 -0.24267,1.054666 z M 156.064,31.977344 c 2.71333,6.302666 6.49333,4.944 6.49333,4.944 0,0 0.0987,-1.258667 0,-3.78 0.292,1.26 2.13333,2.617333 3.87867,4.556 1.74533,1.938666 3.68266,2.716 4.168,4.46 0.484,1.745333 0.0973,3.587999 -0.58134,3.393333 -3.19866,-2.810667 -9.59733,-0.581334 -9.59733,-0.581334 0,0 -0.388,-1.357333 -0.29067,-3.005333 -1.45333,0.872 -3.48933,1.066667 -6.00933,0.776 -2.52133,-0.292 -3.87733,-1.066666 -5.13867,-1.454666 1.06667,1.162666 1.26134,6.591999 1.26134,6.591999 0,0 -4.944,3.104 -1.552,3.492 3.39333,0.386667 6.01066,-3.588 6.01066,-3.588 0,0 0,3.005334 -0.388,5.816 3.00534,-1.454666 2.908,-6.398666 2.908,-6.398666 0,0 0,-0.096 1.45467,0 -0.87333,1.649333 0,5.138666 2.132,6.205333 -0.484,-4.556 2.32667,-5.914667 2.32667,-5.914667 0,0 0,1.164 -0.776,4.266667 2.812,0.485333 3.19866,-3.296 4.36266,-2.812 1.16267,0.485333 1.26,2.425333 0.58134,5.526667 -11.43867,3.974666 -15.316,10.178666 -16.672,15.123999 -2.328,10.857333 10.75866,19.389333 13.668,20.553333 -0.87334,-3.297333 -0.48534,-14.64 -0.48534,-14.64 0,0 0.67867,2.521334 0.58134,5.234667 -0.096,2.716 0.87333,8.046666 1.55066,10.18 0.67867,2.133333 1.35734,5.138664 1.35734,10.858664 -0.096,5.72 -6.00934,4.55734 -9.208,4.944 -3.2,0.388 -3.87734,4.75067 -3.296,6.98134 3.87733,0.29066 6.20266,-3.49067 6.20266,-3.49067 0,0 -1.55066,2.52 -1.64666,3.39333 4.944,0.0973 6.10666,-2.812 7.172,-4.072 -0.28934,1.35734 -2.03467,4.36267 -2.03467,4.36267 0,0 8.04533,-0.19333 13.76533,-0.19333 2.42267,-0.776 2.61734,-4.364 1.744,-5.33334 -0.872,-0.96933 -2.71333,-4.168 0.19334,-4.652 2.90933,-0.48533 5.332,-3.492 5.52666,-5.916 -5.13866,-0.19333 -9.5,2.90934 -9.5,2.90934 0,0 2.52134,-4.750671 3.10267,-8.821338 8.432,-8.434666 9.40267,-14.155999 11.82533,-19.874666 0,5.041333 -5.33066,14.250666 -7.65733,16.868 -2.328,2.618666 -2.71467,3.974666 -3.00533,5.041333 11.05066,-0.485333 25.88133,-10.469333 32.57066,-14.736 6.688,-4.265333 14.056,-1.357333 14.444,0.388 0.388,1.745334 1.45467,2.424 6.01067,6.204 4.944,3.588 5.136,6.981333 5.136,6.981333 0,0 -0.096,7.077338 0,9.986668 0.0973,2.908 -1.744,4.264 -3.10134,3.29467 -1.35733,-0.96934 -3.296,-1.552 -5.13733,-1.45334 -5.81733,0.484 -5.81733,8.72534 -5.81733,8.72534 0,0 3.10266,0.096 3.588,-1.06667 0.484,-1.164 2.036,-1.94 2.036,-1.94 0,0 -1.26,1.64933 -1.35867,3.2 4.65467,0.388 4.944,-0.87333 6.68933,-3.39333 0.19467,1.16266 -1.35733,3.588 -1.35733,3.588 0,0 1.06667,0 6.30133,0.19333 0.77467,-0.776 0.388,-2.812 0.388,-2.812 0,0 0.484,0.96933 5.52534,1.648 5.04133,0.67867 4.74933,-2.908 3.684,-5.81733 -1.06667,-2.908 -0.0973,-4.556 1.45333,-5.62134 -2.42267,-0.87333 -3.78133,-3.2 -2.61733,-3.39467 6.01066,0.0973 7.56133,-3.391994 7.948,-4.846661 -1.54934,0.969333 -4.84667,0.386667 -7.172,-1.162667 -4.16934,-3.490666 -1.164,-11.343999 0.58133,-15.125333 1.744,-3.78 3.39333,-6.882666 5.04133,-13.281333 1.64667,-6.398666 -3.49066,-10.082666 -5.816,-11.245333 5.912,-6.981333 4.168,-12.313333 1.84134,-15.319999 -6.78534,-7.173333 -19.96934,-5.621334 -23.07067,-4.846667 -4.848,1.938667 -7.17467,1.552 -9.792,1.164 -3.78,-0.776 -6.39733,-5.041333 -6.39733,-5.041333 0,0 -0.872,1.357333 -0.67867,4.653333 -4.84667,-2.908 -1.744,-6.689333 -1.06533,-7.658666 -4.944,-1.94 -7.46534,1.453333 -7.65867,3.684 -0.67867,-3.2 0.96933,-6.981334 3.39333,-7.66 2.42267,-0.677334 5.62134,1.066666 7.948,3.297333 -0.48533,-1.164 0.29067,-6.010667 0.29067,-6.010667 0,0 3.296,4.749334 4.36267,5.913334 -0.29067,-1.164 0.388,-3.78 0.96933,-4.750667 2.036,2.714667 0.96933,4.46 -0.0973,6.108 3.39333,0.096 5.13733,-1.648 5.52666,-4.557333 0.872,3.878666 8.52934,6.302666 9.888,6.108 -1.45466,-1.162667 -1.64933,-3.684 -1.64933,-3.684 0,0 6.01067,3.974666 10.95333,5.332 4.944,1.358666 7.07734,-2.326667 6.39867,-4.361334 -0.67867,-2.036 -2.71333,-3.2 -4.65333,-1.938666 -1.93734,1.258666 -1.45334,3.197333 -0.87334,4.361333 -1.45333,-0.096 -7.17333,-3.781333 -16.67333,-9.016 -9.49867,-5.236 -18.51333,-4.072 -22.00267,-2.908 -11.34266,4.750667 -9.49999,12.990667 -8.72533,15.802666 -3.97466,3.005334 -1.84133,8.822667 -0.77466,9.209334 0.19333,-3.102667 2.42266,-4.653334 4.74933,-6.301334 1.84133,2.810667 10.372,5.526667 17.44933,5.72 7.076,0.194667 12.408,-2.618666 15.80133,-3.392 11.43734,0.096 10.952,8.045333 10.75867,11.924 -0.97067,0.484 -4.84667,-0.290667 -9.88667,-1.938667 -5.04133,-1.649333 -19.67866,1.648 -26.65866,3.005334 -6.152,1.194666 -13.50667,2.090666 -15.16533,2.286666 -0.48934,3.826667 -1.428,5.093334 -2.58667,4.992 -0.0147,-0.0013 -0.028,-0.0013 -0.0427,-0.0027 l 0.001,-0.0013 -0.001,0 0,0 c -1.26666,-0.146666 -2.53333,-2.077333 -3.74533,-3.924 l -0.064,-0.1 -0.0227,-0.032 -0.0267,-0.04267 c 0.10666,0.436 0.22133,0.916 0.33466,1.401333 0.696,2.996 -0.016,3.604 -1.34,3.078666 -0.85466,-0.338666 -2.036,-1.490666 -3.10666,-2.561333 -0.49867,-0.497333 -0.90267,-1.073333 -1.232,-1.630666 0.48666,1.386666 2.92266,4.269333 2.90533,4.571999 -0.04,0.698667 -2.76667,0.294667 -4.204,-0.833333 -1.528,-1.202666 -4.46533,-6.446666 -4.47333,-6.461333 -0.15067,-0.266667 -0.056,-0.605333 0.21066,-0.756 0.26667,-0.150667 0.60534,-0.05467 0.756,0.212 0.008,0.01333 2.836,5.061333 4.196,6.130667 0.468,0.366666 0.98534,0.616 1.45467,0.782666 -0.97867,-1.261333 -2.25333,-3.273333 -2.25333,-5.196 0,-1.168 0.176,-1.634666 0.668,-1.634666 0.43866,0 0.61866,0.404 0.9,1.026666 0.34933,0.776 0.93466,2.073334 1.86,3 0.99466,0.994667 2.08533,2.061334 2.72666,2.316 0.17067,0.068 0.18134,-0.356 -0.15333,-1.797333 -0.17867,-0.770667 -0.32133,-1.353333 -0.44,-1.841333 -0.312,-1.28 -0.488,-2.002667 -0.36133,-2.313334 1.43066,-3.473333 5.20133,11.624 6.75066,2.748 0.13467,-0.776 0.22534,-2.224 0.17334,-2.972 -0.0453,-0.642666 -0.15867,-1.342666 -0.34934,-1.902666 -0.93466,0.68 -1.75066,0.517333 -2.49333,-0.168 -0.96933,-0.896 -1.692,-2.792 -2.42133,-4.708 -0.184,-0.482667 -0.368,-0.966667 -0.52267,-1.352 -0.54533,-1.361333 -0.36533,-2.38 -0.56133,-2.236 -0.068,0.05067 -0.0653,1.126667 -0.0187,3.256 0.0427,1.909333 -0.36267,2.650666 -1.04133,2.665333 -0.88934,0.02 -1.93734,-1.742667 -2.95734,-3.46 -0.84533,-1.421333 -0.74933,-1.710666 -0.64666,-0.052 0.12533,1.994667 -0.0707,2.732 -0.752,2.814667 -0.0187,0.0027 -0.0387,0.0053 -0.0573,0.0053 l 0,0 c -0.412,0.024 -0.79866,-0.254667 -1.33466,-0.645333 -0.23467,-0.168 -0.50267,-0.362667 -0.77734,-0.541333 -0.33466,-0.216 -0.59066,-0.401334 -0.80533,-0.557334 -0.28533,-0.206666 -0.47733,-0.346666 -0.492,-0.348 -0.17333,-0.012 0.17067,0.393334 0.0907,1.510667 -0.10534,1.482666 -0.18667,2.362666 -0.33067,2.853333 -0.29467,1 -0.71867,1.056 -1.448,0.574667 l -0.0147,-0.0093 0.30934,-0.464 -0.30934,0.461334 c -0.688,-0.458667 -3.20666,-3.504 -3.21333,-3.512 -0.19733,-0.236 -0.164,-0.586667 0.072,-0.781333 0.23467,-0.197334 0.58533,-0.164 0.78133,0.07067 0.005,0.008 2.036,2.458667 2.80134,3.154667 0.088,-0.441334 0.156,-1.217334 0.24133,-2.425334 0.14,-1.947999 0.29733,-2.601333 1.09733,-2.543999 0.33334,0.024 0.63067,0.24 1.068,0.557333 0.21734,0.157333 0.476,0.345333 0.75734,0.528 2.22533,1.438666 1.39733,2.437333 1.20666,-0.637333 -0.0373,-0.601334 -0.088,-1.174667 -0.12933,-1.636 l 0,0 c -0.001,-0.01733 -0.003,-0.03333 -0.003,-0.05067 -0.088,-0.998667 -0.13066,-1.561333 0.25067,-1.796 l 0.001,0.0013 0,0 c -0.004,-0.0053 0.0693,-0.03867 0.0787,-0.04267 0.53867,-0.250667 0.97467,0.413333 1.86267,1.857333 0.18933,0.306667 0.42,0.697333 0.652,1.086667 0.85733,1.441333 1.73733,2.922666 1.97733,2.917333 0.008,0 -0.0227,-0.425334 -0.0467,-1.533333 -0.056,-2.514667 0.0493,-3.864 0.472,-4.174667 0.68534,-0.506667 1.35067,0.468 2.25067,2.718667 0.20133,0.504 0.36667,0.937333 0.532,1.368 0.68267,1.794666 1.35867,3.571999 2.13333,4.285333 0.316,0.292 0.68534,0.348 1.13734,0.03333 l -0.0213,-0.01333 c 0.19334,-0.485334 -0.0973,-1.649334 -0.0973,-2.133334 0,-0.485333 -0.776,-2.521333 -0.776,-2.521333 0,0 0.87333,0 1.45467,-0.484 0.98,-0.816 0.23866,-5.524 -1.728,-7.205333 -0.944,-0.808 -2.012,-1.834667 -3.14667,-3.068 -1.73467,-1.885333 -0.57467,-1.526666 -0.79067,1.926667 -0.0933,1.502666 -0.008,3.984 -1.19066,2.582666 -0.148,-0.174666 -0.408,-0.481333 -0.85067,-0.842666 -0.0427,-0.03467 -0.084,-0.068 -0.12533,-0.102667 0.001,0.06 0.001,0.124 0.001,0.188 0,1.492 -0.15733,2.14 -0.96533,2.14 -0.49467,0 -1.096,-0.446667 -2.132,-1.217333 -0.21334,-0.158667 -0.452,-0.337334 -0.78134,-0.577334 -0.95333,-0.696 -0.928,-1.413333 -1.092,-1.188 -0.0627,0.084 0.0827,0.068 0.112,0.294667 0.048,0.358667 0.11067,0.829333 0.11067,1.373333 0,1.437334 -0.26267,2.08 -1.15733,2.026667 -0.528,-0.03067 -1.25334,-0.492 -2.37734,-1.321333 0.10134,0.233333 0.204,0.488 0.30134,0.76 0.31066,0.862666 0.40133,1.465333 0.34133,1.865333 -0.0493,0.332 -0.19467,0.566667 -0.412,0.718667 -0.0187,0.01467 -0.036,0.028 -0.056,0.04 l 0,-0.0013 c -0.23467,0.141334 -0.50933,0.168 -0.804,0.105334 -0.42,-0.09067 -0.92267,-0.385334 -1.38933,-0.768 -0.57467,-0.469334 -4.324,-3.502667 -4.33334,-3.509334 -0.23866,-0.193333 -0.27466,-0.544 -0.08,-0.781333 0.19334,-0.238667 0.54267,-0.274667 0.78134,-0.08133 0.009,0.0067 2.64133,2.121333 4.336,3.509333 1.17066,0.957333 0.94933,0.329333 0.57066,-0.724 -0.32266,-0.894667 -0.70266,-1.592 -0.93866,-2.025333 -0.496,-0.912 -0.11867,-1.849334 1.71866,-0.469334 l 0.28267,0.212 c 1.15067,0.864 1.83067,1.342667 2.124,1.36 0.0173,0.0013 -0.0227,-0.288 -0.0227,-0.916 0,-0.496 -0.056,-0.913333 -0.0973,-1.229333 -0.0653,-0.489333 -0.11067,-0.821333 0.0907,-1.096 0.41733,-0.570667 1.024,-0.238667 2.648,0.948 0.24666,0.18 0.52933,0.390667 0.78666,0.582667 0.84534,0.628 1.33734,0.994666 1.46934,0.994666 0.12533,0 -0.14934,-0.310666 -0.14934,-1.025333 0,-0.732 -0.0587,-1.164 -0.0893,-1.382667 -0.0533,-0.389333 -0.0733,-0.581333 0.292,-0.764 l -10e-4,-0.0027 c 0.016,-0.008 0.0333,-0.01467 0.0493,-0.02133 0.38,-0.170666 0.504,-0.01067 0.74667,0.288 0.13333,0.164 0.40933,0.502667 0.94266,0.934667 0.0667,0.05467 0.12934,0.108 0.188,0.158667 0.003,-0.308 0.0147,-0.672 0.0413,-1.101334 0.052,-0.830666 0.0387,-1.541333 0.0267,-2.101333 -0.0173,-0.901333 -0.0293,-1.490666 0.30667,-1.798666 0.504,-0.462667 1.13733,-0.072 2.38667,1.285333 1.10533,1.202666 2.14,2.197333 3.05066,2.976 0.73067,0.622666 1.324,1.293333 2.36134,0.973333 0.97066,-2.521333 -0.096,-5.526666 -2.32534,-8.144 3.10134,-0.774666 5.23467,-6.106666 3.97467,-6.592 -1.35733,3.102667 -5.91333,2.034667 -7.852,2.52 0.096,-2.422666 -5.428,-7.173333 -5.428,-7.173333 0,0 0,0 0,2.714667 0,2.714666 -1.35733,4.168 -2.32667,3.586666 -0.96933,-2.810666 -3.87866,-3.878666 -6.10666,-3.878666 1.16266,3.2 -1.164,5.817333 -3.10267,5.817333 -2.424,-5.817333 -7.464,-2.908 -8.91867,-1.357333 1.16267,-0.09733 4.74934,0.873333 5.13734,2.714666 -1.84134,-0.193333 -13.86134,3.005334 -13.86134,3.005334 0,0 1.164,-1.550667 0.67867,-2.52 -0.48533,-0.970667 -4.848,-1.745334 -5.42933,0.581333 -0.58134,2.326667 0.96933,4.265333 3.00533,6.301333 2.036,2.036 2.812,1.357333 2.812,1.357333 l 1.93867,-1.454666 z m 8.92666,-1.797334 c 0.0333,-0.731999 0.18934,-1.273333 0.42934,-1.630666 0.21733,-0.32 0.5,-0.508 0.83066,-0.570667 0.30934,-0.05867 0.636,0.0027 0.96534,0.176 0.48266,0.254667 1,0.78 1.484,1.546667 0.47466,0.750666 0.62533,1.478666 0.56533,2.1 -0.0453,0.456 -0.20533,0.857333 -0.44,1.172 -0.24667,0.332 -0.57733,0.572 -0.948,0.690666 -1.05467,0.333334 -2.99333,-1.118666 -2.88667,-3.484 z M 139.592,77.536009 c 0,0 1.64666,-1.288 0.50133,-2.289333 -1.14533,-1.001333 0,-1.286667 0.42933,-1.358667 0.42934,-0.072 0.572,-0.286666 -0.21466,-0.930666 -0.78667,-0.642667 -0.572,-1.716 0.42933,-1.788 0.14267,-0.214667 0.78667,-0.357334 -0.21467,-1.286667 -1.00133,-0.930666 0.78667,-2.576 2.71867,-2.289333 1.93067,0.286667 4.72133,2.504 6.724,8.369333 2.00267,5.078667 4.14933,7.938666 5.58,8.725333 1.42933,0.788 3.576,3.934667 3.576,6.009333 0,2.074667 -2.00267,5.006667 -6.08,2.717334 -4.07733,-2.288 -6.00933,-5.936 -6.724,-6.794667 -0.716,-0.858667 -1.216,-1.144 -1.288,0.214667 -0.0707,1.358666 0.072,2.574666 -2.21733,1.717333 -2.28934,-0.858667 -3.57734,-0.788 -2.14667,-2.432 1.43067,-1.646667 2.21867,-3.434666 0.78667,-5.794666 -1.42934,-2.361334 -2.504,-1.788 -1.86,-2.789334 z m 9.00666,-39.643999 c 0,0 12.7,2.133334 15.31734,1.162667 0.29066,-0.290667 0.872,-0.774667 1.93866,-0.193333 1.06534,0.581333 3.78,2.909333 3.78,5.041333 -0.77466,-0.290667 -7.17333,-0.776 -8.24,0 0,-1.357333 0.19467,-3.489333 -1.648,-2.908 -2.42266,0.678667 -9.208,2.326667 -11.148,-3.102667 z m 64.93867,69.696 c 0,0 2.60133,-8.72933 1.00666,-11.33067 -1.59466,-2.602664 -6.96533,-6.379998 -6.71466,-9.653331 0.252,-3.273333 3.10533,-5.790666 8.56133,-7.721333 2.85467,-0.586667 9.90533,-2.937333 11.836,3.945333 0.25067,1.761333 -0.92267,8.477333 -2.76933,12.086667 0.25066,0.922666 1.25866,0.166666 2.26533,-0.505334 1.008,-0.670666 2.68667,-1.090666 3.77733,-1.090666 1.09067,0 1.008,1.176 -0.336,2.686664 -1.34266,1.51067 -4.7,3.356 -4.7,3.356 0,0 -1.092,10.24134 -3.86133,13.51467 -3.27333,0.168 -10.66133,0.168 -10.66133,0.168 0,0 0.924,-2.18267 1.428,-3.10533 0.50266,-0.924 -0.084,-0.756 -1.34267,0.83866 -1.26,1.59467 -1.596,2.26667 -1.596,2.26667 l -3.60933,-0.084 2.93866,-3.86133 c 0,0 0.084,-1.51067 -0.42,-0.67067 -0.50266,0.83867 -4.36533,4.616 -7.30266,4.616 0.84,-3.86133 3.27333,-7.38667 6.88266,-6.21067 3.60934,1.17467 4.28134,1.17467 4.61734,0.75467 l 0,0"
       style="fill:#231f87;fill-opacity:1;fill-rule:evenodd;stroke:none"
       id="path30" /><g
       style="fill:#231f87;fill-opacity:1"
       id="g4297"><path
         id="path32"
         style="fill:#231f87;fill-opacity:1;fill-rule:nonzero;stroke:none"
         d="m 327.90666,248.38934 c 1.08267,0.4 2.204,0.464 3.36667,0.19467 1.12,-0.25867 2.04533,-0.78 2.77999,-1.572 0.7,-0.75734 1.19334,-1.99867 1.47467,-3.728 0.26533,-1.58934 0.43467,-2.51334 0.50933,-2.76134 0.19467,-0.60266 0.588,-0.97466 1.17734,-1.11066 0.54666,-0.12667 1.03066,-0.012 1.45066,0.33866 0.38934,0.30534 0.65467,0.77867 0.804,1.42134 0.24,1.04133 0.13067,2.14533 -0.328,3.31466 -0.13333,0.35334 -0.38133,0.904 -0.74133,1.65467 l 3.71733,0.0733 c 0.28134,-1.236 0.42934,-2.30666 0.44667,-3.21333 0.016,-0.91067 -0.10133,-1.89733 -0.34933,-2.96533 -0.71067,-3.084 -2.19067,-4.96267 -4.444,-5.64 -1.192,-0.35734 -2.44667,-0.38 -3.772,-0.0747 -1.07733,0.24933 -1.95333,0.7 -2.62933,1.348 -0.81067,0.77333 -1.34534,2.068 -1.6,3.88133 -0.25067,1.768 -0.44667,2.84 -0.59334,3.22 -0.148,0.37867 -0.45466,0.62534 -0.92266,0.73334 -0.44667,0.10266 -0.84667,0.024 -1.2,-0.23067 -0.35867,-0.25333 -0.592,-0.632 -0.70934,-1.13867 -0.256,-1.10266 0.036,-2.59466 0.876,-4.484 l -3.50266,0.016 c -0.34934,1.8 -0.32934,3.54134 0.0587,5.22134 0.672,2.90933 2.04667,4.73866 4.13067,5.50133"
         inkscape:connector-curvature="0" /><path
         id="path34"
         style="fill:#231f87;fill-opacity:1;fill-rule:nonzero;stroke:none"
         d="m 261.73333,405.84787 -1.17467,-5.31974 3.95467,3.71454 z m 0.26666,-11.4812 c -0.28133,-0.24267 -0.45866,-0.42547 -0.528,-0.54694 -0.0133,-0.0213 -0.0347,-0.0676 -0.0667,-0.14106 l -4.40934,2.54533 c 0.0627,0.0733 0.104,0.12653 0.12267,0.1572 0.0747,0.1292 0.13867,0.36 0.2,0.68813 l 3.196,16.82134 c 0.072,0.4052 0.072,0.7468 0.004,1.02906 l 2.81333,-1.62386 c -0.0747,-0.0761 -0.12133,-0.13187 -0.13866,-0.16254 -0.0747,-0.12813 -0.144,-0.35306 -0.20667,-0.66933 l -0.73067,-3.788 4.38667,-2.53333 2.848,2.5652 c 0.21333,0.19893 0.368,0.37493 0.45467,0.52706 0.0187,0.0301 0.0467,0.0968 0.0827,0.19427 l 5.99067,-3.45733 c -0.304,-0.0692 -0.61467,-0.23067 -0.936,-0.4916 l -13.08267,-11.1136"
         inkscape:connector-curvature="0" /><path
         id="path36"
         style="fill:#231f87;fill-opacity:1;fill-rule:nonzero;stroke:none"
         d="m 230.32399,407.99733 c -0.0973,-0.37333 -0.11866,-0.676 -0.0693,-0.90933 l -6.18267,1.77347 c 0.16534,0.17026 0.30667,0.44013 0.42267,0.80786 l 4.456,15.54 c 0.0973,0.37454 0.11867,0.67614 0.0693,0.90947 l 6.18267,-1.77347 c -0.16533,-0.17186 -0.30667,-0.43853 -0.42133,-0.80786 l -4.45734,-15.54014"
         inkscape:connector-curvature="0" /><path
         id="path38"
         style="fill:#231f87;fill-opacity:1;fill-rule:nonzero;stroke:none"
         d="m 202.77866,417.98547 c -1.688,-0.5828 -2.70267,-0.97867 -3.04666,-1.1948 -0.34534,-0.2172 -0.528,-0.56667 -0.544,-1.04534 -0.016,-0.45893 0.136,-0.836 0.45333,-1.136 0.31867,-0.30253 0.73466,-0.46146 1.256,-0.47866 1.13066,-0.04 2.53733,0.5308 4.23333,1.71626 l 0.652,-3.44013 c -1.7,-0.688 -3.41333,-1 -5.13733,-0.94013 -2.98267,0.10413 -5.04133,1.1068 -6.18667,3.0052 -0.6,0.98693 -0.876,2.07506 -0.83333,3.26826 0.0387,1.14787 0.37467,2.1572 1.012,3.0276 0.60933,0.83227 1.73333,1.552 3.37733,2.1604 1.51067,0.56254 2.38533,0.9052 2.61467,1.02654 0.55466,0.30413 0.84266,0.76146 0.86533,1.36666 0.02,0.56147 -0.18533,1.0136 -0.60933,1.35987 -0.37467,0.324 -0.88933,0.4948 -1.54933,0.5172 -1.068,0.0376 -2.13067,-0.2812 -3.192,-0.95147 -0.32134,-0.2016 -0.81334,-0.54853 -1.48267,-1.04693 l -0.78,3.63493 c 1.15867,0.51294 2.18267,0.8624 3.06933,1.05147 0.89067,0.1896 1.88134,0.26307 2.976,0.224 3.164,-0.1088 5.29067,-1.2036 6.38533,-3.2864 0.57734,-1.10267 0.84,-2.32813 0.792,-3.688 -0.0373,-1.10427 -0.31333,-2.05213 -0.82133,-2.8376 -0.604,-0.94533 -1.772,-1.7172 -3.504,-2.31293"
         inkscape:connector-curvature="0" /><path
         id="path40"
         style="fill:#231f87;fill-opacity:1;fill-rule:nonzero;stroke:none"
         d="m 215.64666,418.59213 -0.41067,0.0729 -1.016,-5.76507 0.552,-0.0973 c 0.98534,-0.17347 1.65334,0.73853 2.004,2.73226 0.32667,1.84787 -0.0493,2.86774 -1.12933,3.0572 z m 9.68133,7.17294 -4.53466,-6.68907 c 0.9,-0.7656 1.49333,-1.53067 1.784,-2.2932 0.292,-0.76307 0.344,-1.688 0.15466,-2.76667 -0.284,-1.60413 -0.99066,-2.7484 -2.128,-3.43226 -1.10933,-0.67347 -2.47333,-0.87187 -4.096,-0.58547 l -8.86933,1.56413 c 0.152,0.21454 0.26533,0.49627 0.33467,0.84787 l 2.808,15.92027 c 0.0653,0.4188 0.0547,0.71986 -0.0267,0.912 l 6.35867,-1.12134 c -0.14934,-0.2052 -0.264,-0.4864 -0.336,-0.84786 l -1.204,-6.8256 3.28933,6.45893 c 0.17333,0.33333 0.276,0.5744 0.30133,0.72133 0.004,0.0172 0.005,0.0583 0.009,0.1292 l 6.88,-1.212 c -0.24667,-0.18026 -0.488,-0.43853 -0.72534,-0.78026"
         inkscape:connector-curvature="0" /><path
         id="path42"
         style="fill:#231f87;fill-opacity:1;fill-rule:nonzero;stroke:none"
         d="m 326.92933,252.95734 c -0.0627,0.009 -0.184,0.012 -0.37067,0.012 l 0.728,5.16933 c 0.0773,-0.02 0.13067,-0.032 0.16667,-0.0373 0.164,-0.0227 0.41066,-0.003 0.73733,0.056 l 10.59733,1.95066 -9.65333,4.76134 c -0.24667,0.12133 -0.45867,0.196 -0.632,0.22 -0.044,0.007 -0.12533,0.009 -0.24,0.007 l 0.74667,5.3 c 0.17866,-0.0533 0.296,-0.0827 0.35733,-0.0907 0.15733,-0.0227 0.33067,-0.0333 0.52667,-0.0333 l 16.32399,-0.009 c 0.39067,0.008 0.69867,0.0693 0.928,0.18533 l -0.46266,-3.29333 c -0.22134,0.13467 -0.44,0.22133 -0.65467,0.25067 -0.0707,0.0107 -0.14267,0.0147 -0.21067,0.016 l -9.056,0.212 8.5,-4.16934 c 0.30667,-0.14666 0.54,-0.23333 0.69467,-0.256 0.0347,-0.004 0.0893,-0.008 0.17067,-0.0107 l -0.672,-4.78267 c -0.0933,0.0213 -0.15867,0.036 -0.19467,0.04 -0.18133,0.0267 -0.42,0.009 -0.70933,-0.044 l -9.328,-1.732 8.78933,-2.10933 c 0.20667,-0.048 0.37867,-0.0813 0.516,-0.1 0.0613,-0.009 0.18267,-0.0173 0.368,-0.0253 l -0.90133,-6.41066 c -0.18667,0.18933 -0.464,0.33733 -0.83867,0.45333 l -15.712,4.35733 c -0.22266,0.0587 -0.39466,0.0973 -0.51466,0.11334"
         inkscape:connector-curvature="0" /><path
         id="path44"
         style="fill:#231f87;fill-opacity:1;fill-rule:nonzero;stroke:none"
         d="m 256.30133,413.836 -3.47734,1.4052 -5.37466,-13.3052 c -0.136,-0.36 -0.19334,-0.65733 -0.176,-0.89227 l -5.95334,2.40574 c 0.184,0.1532 0.35334,0.4052 0.50667,0.7584 l 6.05467,14.98946 c 0.13733,0.36147 0.19066,0.66 0.164,0.89747 l 10.44,-4.21773 -1.08934,-2.6968 c -0.184,0.2052 -0.54533,0.42386 -1.09466,0.65573"
         inkscape:connector-curvature="0" /><path
         id="path46"
         style="fill:#231f87;fill-opacity:1;fill-rule:nonzero;stroke:none"
         d="m 332.36533,324.42814 -9.92,-3.8084 c -0.31467,-0.13067 -0.56934,-0.29427 -0.768,-0.4916 l -1.10267,2.87453 c 0.22,-0.0344 0.51733,0.0119 0.89867,0.14787 l 9.77466,3.7536 c 0.77067,0.29426 1.36267,0.63186 1.77334,1.0156 0.41066,0.38546 0.68666,0.85106 0.82266,1.40266 0.2,0.81774 0.148,1.63067 -0.15867,2.42974 -0.39599,1.03173 -1.01333,1.71453 -1.85866,2.04786 -0.74667,0.3052 -1.69067,0.236 -2.836,-0.20413 l -10.04667,-3.85573 c -0.33066,-0.13747 -0.58533,-0.30267 -0.768,-0.49067 l -2.30533,6.0036 c 0.24667,-0.0249 0.54533,0.0229 0.9,0.1496 l 9.628,3.69467 c 1.16933,0.4496 2.208,0.67453 3.116,0.6772 0.904,-0.004 1.77067,-0.2292 2.58933,-0.68387 1.58133,-0.86 2.808,-2.42813 3.684,-4.712 1.11067,-2.89227 1.13067,-5.27453 0.0653,-7.14533 -0.71466,-1.24947 -1.87333,-2.1864 -3.48799,-2.8052"
         inkscape:connector-curvature="0" /><path
         id="path48"
         style="fill:#231f87;fill-opacity:1;fill-rule:nonzero;stroke:none"
         d="m 344.30532,298.27867 -13.94266,-2.208 0.504,-3.18 c 0.052,-0.324 0.152,-0.63467 0.29467,-0.93867 l -3.04934,-0.484 -2.25333,14.22534 3.05067,0.48266 c -0.028,-0.43066 -0.0133,-0.83333 0.0453,-1.20533 l 0.46133,-2.90933 13.94,2.208 c 0.38933,0.0693 0.672,0.17866 0.85333,0.32133 l 1.00667,-6.35467 c -0.22667,0.0787 -0.528,0.0947 -0.91067,0.0427"
         inkscape:connector-curvature="0" /><path
         id="path50"
         style="fill:#231f87;fill-opacity:1;fill-rule:nonzero;stroke:none"
         d="m 336.80666,308.92134 c -1.06667,-0.28534 -2.05334,-0.29867 -2.95334,-0.0427 -1.07999,0.30133 -2.15999,1.192 -3.23599,2.67467 -1.05067,1.44266 -1.72667,2.29866 -2.03334,2.564 -0.30933,0.26666 -0.696,0.33866 -1.16133,0.21466 -0.44133,-0.11866 -0.75867,-0.376 -0.95067,-0.76666 -0.19733,-0.392 -0.22666,-0.836 -0.092,-1.34 0.29334,-1.092 1.25067,-2.272 2.87867,-3.54534 l -3.1,-1.63066 c -1.15333,1.424 -1.95333,2.972 -2.4,4.63733 -0.77333,2.88267 -0.416,5.14533 1.06533,6.796 0.768,0.86107 1.728,1.44387 2.88134,1.75333 1.10933,0.29734 2.172,0.2708 3.19333,-0.0839 0.972,-0.33854 1.99067,-1.2052 3.052,-2.59747 0.97866,-1.28133 1.56266,-2.01733 1.74533,-2.2 0.45333,-0.44133 0.976,-0.58533 1.56133,-0.428 0.54267,0.14533 0.91467,0.472 1.12267,0.98 0.2,0.452 0.212,0.99467 0.04,1.632 -0.276,1.032 -0.89067,1.95613 -1.84267,2.77333 -0.28666,0.24787 -0.76266,0.61867 -1.43466,1.112 l 3.248,1.81094 c 0.82933,-0.95894 1.464,-1.83494 1.904,-2.62814 0.44133,-0.79746 0.8,-1.724 1.084,-2.78146 0.81866,-3.05734 0.396,-5.41067 -1.276,-7.068 -0.88534,-0.87334 -1.98134,-1.48267 -3.296,-1.836"
         inkscape:connector-curvature="0" /><path
         id="path52"
         style="fill:#231f87;fill-opacity:1;fill-rule:nonzero;stroke:none"
         d="m 290.58133,394.624 -9.49467,-13.06826 c -0.17867,-0.24787 -0.288,-0.412 -0.32667,-0.49427 -0.0347,-0.0812 -0.056,-0.1932 -0.0493,-0.336 l -2.48,1.80267 c 0.22533,0.1188 0.45333,0.32493 0.68133,0.62493 l 5.844,8.04426 -11.97066,-3.5932 c -0.464,-0.14013 -0.77467,-0.28693 -0.936,-0.44013 l -4.20667,3.05573 c 0.20533,0.0896 0.43067,0.29387 0.67333,0.6152 l 9.50267,13.07867 c 0.20933,0.30253 0.332,0.57853 0.376,0.83013 l 2.49333,-1.8104 c -0.216,-0.10413 -0.44,-0.3068 -0.67466,-0.61453 l -5.72934,-7.88547 11.75334,3.49214 c 0.452,0.14906 0.77066,0.28906 0.95866,0.42506 l 4.26667,-3.1 c -0.28267,-0.18386 -0.512,-0.3932 -0.68133,-0.62653"
         inkscape:connector-curvature="0" /><path
         id="path54"
         style="fill:#231f87;fill-opacity:1;fill-rule:nonzero;stroke:none"
         d="m 342.53066,285.316 c -1.148,0.46934 -2.86667,0.68667 -5.16534,0.64667 -2.29333,-0.04 -3.972,-0.32933 -5.03599,-0.86933 -1.05867,-0.54267 -1.57867,-1.37067 -1.55867,-2.48267 0.0467,-1.176 0.636,-2 1.76667,-2.484 1.11333,-0.46933 2.83199,-0.68667 5.16533,-0.64667 2.308,0.04 3.988,0.33067 5.04933,0.86934 1.06,0.544 1.58,1.37066 1.56,2.484 -0.02,1.18533 -0.61467,2.00933 -1.78133,2.48266 z m -4.82534,-12.16266 c -3.452,-0.06 -5.96399,0.93866 -7.53599,2.99866 -1.23734,1.62134 -1.88,3.75734 -1.92667,6.41334 -0.0333,3.94666 1.168,6.70666 3.60533,8.28533 0.648,0.424 1.45867,0.76533 2.42933,1.02 0.96534,0.26 1.94134,0.39867 2.924,0.416 1.88534,0.0333 3.48934,-0.22667 4.81467,-0.78267 1.68533,-0.70666 2.95067,-1.852 3.79467,-3.436 0.65466,-1.21466 0.99733,-2.86533 1.03466,-4.95333 0.0533,-3.052 -0.624,-5.42533 -2.032,-7.124 -1.52933,-1.83733 -3.89733,-2.78133 -7.108,-2.83733"
         inkscape:connector-curvature="0" /><path
         id="path56"
         style="fill:#231f87;fill-opacity:1;fill-rule:nonzero;stroke:none"
         d="m 326.91333,346.98907 c -0.268,0.4828 -0.644,0.89213 -1.13334,1.23067 -0.484,0.3376 -1.02266,0.54693 -1.60133,0.63906 -0.728,0.1172 -1.50133,0.0693 -2.32667,-0.1468 -0.82133,-0.2136 -1.75466,-0.6136 -2.79866,-1.19226 -1.75467,-0.9728 -2.95067,-2.05574 -3.592,-3.25307 -0.64,-1.19587 -0.64667,-2.35987 -0.0227,-3.488 0.63467,-1.1412 1.94,-2.12813 3.92267,-2.9532 l -3.36934,-1.86813 c -1.292,1.06146 -2.36533,2.3692 -3.228,3.92386 -0.73866,1.33494 -1.24533,2.5532 -1.512,3.65374 -0.26933,1.0984 -0.32933,2.16773 -0.176,3.2172 0.15334,1.06506 0.47867,2.02653 0.97867,2.8744 0.728,1.23493 2.02,2.3656 3.876,3.39586 2.74533,1.52027 5.17733,1.9964 7.29867,1.42707 2.14533,-0.5812 3.99333,-2.26667 5.536,-5.05107 0.952,-1.7156 1.568,-3.49426 1.84533,-5.33693 l -3.25467,-1.80573 c 0.29867,2.08173 0.15334,3.6588 -0.44266,4.73333"
         inkscape:connector-curvature="0" /><path
         id="path58"
         style="fill:#231f87;fill-opacity:1;fill-rule:nonzero;stroke:none"
         d="m 294.86133,377.12654 -1.74267,-7.27867 c -0.0973,-0.43067 -0.13333,-0.8104 -0.1,-1.14627 l -3.256,3.14534 c 0.14933,0.24213 0.272,0.53946 0.36533,0.888 l 2.00134,7.9984 -4.96267,-5.13854 c -0.26133,-0.2844 -0.42267,-0.54173 -0.488,-0.7708 l -4.628,4.4692 c 0.22133,0.0683 0.47333,0.236 0.75333,0.51467 l 11.22934,11.62813 c 0.26266,0.28533 0.42266,0.54107 0.48933,0.7708 l 4.62667,-4.46827 c -0.228,-0.0735 -0.47734,-0.24373 -0.752,-0.51453 l -4.52267,-4.6828 6.25333,2.99213 c 0.368,0.1812 0.632,0.34374 0.79067,0.49587 l 5.1,-4.924 c -0.31733,-0.012 -0.67067,-0.088 -1.06533,-0.23173 l -10.092,-3.74693"
         inkscape:connector-curvature="0" /><path
         id="path60"
         style="fill:#231f87;fill-opacity:1;fill-rule:nonzero;stroke:none"
         d="m 304.17733,371.9984 -3.08267,-4.4916 5.05867,1.964 z m 12.24,-5.3396 -16.29334,-5.40413 c -0.352,-0.11973 -0.58533,-0.22293 -0.69466,-0.30773 -0.02,-0.0177 -0.0573,-0.0511 -0.116,-0.1084 l -3.13334,4.012 c 0.0853,0.0443 0.14267,0.0787 0.172,0.1 0.11734,0.0921 0.26534,0.2812 0.444,0.564 l 9.264,14.4 c 0.21867,0.34533 0.348,0.66413 0.38934,0.95213 l 2.00133,-2.56147 c -0.0973,-0.0427 -0.16267,-0.076 -0.192,-0.0973 -0.11733,-0.0917 -0.264,-0.27613 -0.44133,-0.54387 l -2.09467,-3.23853 3.11733,-3.99107 3.60267,1.31254 c 0.27067,0.10253 0.47867,0.20773 0.61733,0.3156 0.028,0.0213 0.0787,0.0749 0.14934,0.15106 l 4.26,-5.45213 c -0.308,0.0505 -0.65734,0.0172 -1.052,-0.10267"
         inkscape:connector-curvature="0" /></g><g
       id="g4314"><path
         id="path62"
         style="fill:#231f87;fill-opacity:1;fill-rule:nonzero;stroke:none"
         d="m 46.542666,258.52534 c 0.695333,0.26533 1.033866,0.54 1.008933,0.82933 -0.02613,0.29467 -0.4068,0.508 -1.1376,0.64667 -0.730133,0.13866 -1.606667,0.164 -2.6276,0.0733 -1.026533,-0.0893 -1.8848,-0.26933 -2.580133,-0.53467 -0.695334,-0.26533 -1.0328,-0.54 -1.007867,-0.82933 0.02613,-0.29467 0.406267,-0.50933 1.137067,-0.648 0.730666,-0.13733 1.606666,-0.16267 2.633333,-0.072 1.021333,0.0893 1.878533,0.268 2.573867,0.53467 z m 5.226133,5.704 c -1.183867,0.40266 -2.7584,0.51866 -4.726134,0.34666 l -1.688533,-0.148 c -0.997866,-0.0867 -2.0604,-0.0947 -3.188,-0.0213 -1.127066,0.072 -2.144266,0.32267 -3.038,0.75333 -0.899466,0.42667 -1.388533,1.09334 -1.468266,2 -0.101467,1.16 0.2708,2.092 1.112,2.79467 0.846933,0.70133 1.9396,1.22267 3.271866,1.56267 1.332267,0.34 2.812,0.57866 4.432267,0.72133 1.893733,0.16533 3.4828,0.12667 4.7568,-0.11333 1.269333,-0.24134 2.2708,-0.59467 2.995866,-1.05467 0.7244,-0.46 1.135867,-0.764 1.223467,-0.912 0.09373,-0.14533 0.146267,-0.29067 0.158267,-0.43333 0.0093,-0.10667 -0.0057,-0.2 -0.0448,-0.28 -0.03853,-0.08 -0.130134,-0.152 -0.284934,-0.224 -0.154666,-0.072 -0.311866,-0.112 -0.4828,-0.128 -0.3364,-0.0293 -0.633333,0.076 -0.89,0.32133 -0.262533,0.24267 -0.511466,0.58267 -0.7552,1.01733 -0.708933,0.60134 -1.6548,0.96667 -2.8444,1.09467 -1.188933,0.12933 -2.4312,0.13733 -3.720266,0.024 -1.654133,-0.14533 -3.121867,-0.46 -4.412533,-0.94933 -1.2848,-0.48934 -1.894267,-1.14267 -1.8228,-1.96 0.03173,-0.35867 0.243733,-0.61867 0.642666,-0.77734 0.399467,-0.15733 1.166134,-0.18533 2.3016,-0.0867 0.216134,0.02 0.427067,0.0387 0.643734,0.0573 0.210933,0.0187 0.422933,0.0373 0.621866,0.0547 l 1.671867,0.14533 c 2.526533,0.22133 4.627066,-0.0653 6.301066,-0.86533 1.6728,-0.79734 2.598934,-2.24134 2.780667,-4.328 0.1536,-1.75734 -0.589067,-3.19067 -2.2208,-4.304 -1.639067,-1.11334 -3.809867,-1.78934 -6.519333,-2.028 -2.652533,-0.232 -4.6672,-0.0707 -6.037467,0.48266 -1.376533,0.55067 -2.107866,1.356 -2.199466,2.40667 -0.1084,1.24533 0.402133,2.23067 1.5412,2.952 1.138,0.72133 2.508266,1.15067 4.117066,1.29067 1.654267,0.14533 3.1048,-0.009 4.357333,-0.464 1.252667,-0.456 1.9188,-1.17334 2.0052,-2.15734 0.08853,-1.012 -0.4416,-1.848 -1.5968,-2.50933 -1.1548,-0.66133 -2.567733,-1.06667 -4.244799,-1.21333 -0.1376,-0.012 -0.302667,-0.02 -0.509467,-0.0253 l 0.0043,-0.0547 c 0.228133,-0.036 0.550933,-0.0507 0.964,-0.048 0.4136,0.003 0.8432,0.0253 1.293733,0.064 1.8652,0.16266 3.3584,0.512 4.478666,1.044 1.120267,0.532 1.908934,1.108 2.354667,1.72533 0.452133,0.61733 0.6584,1.14933 0.619867,1.59333 -0.118267,1.352 -0.7704,2.22934 -1.9552,2.63334"
         inkscape:connector-curvature="0" /><path
         id="path64"
         style="fill:#231f87;fill-opacity:1;fill-rule:nonzero;stroke:none"
         d="m 37.987999,247.99467 c -0.233333,-0.61733 -0.274933,-1.24933 -0.126,-1.89733 0.05733,-0.24667 0.126,-0.46933 0.212533,-0.66533 0.0864,-0.196 0.188,-0.40667 0.3104,-0.632 0.2296,0.96666 0.738,1.86666 1.526534,2.70266 0.794266,0.83734 1.755733,1.58534 2.890133,2.248 -0.202133,0.21334 -0.523467,0.35867 -0.975067,0.42934 -0.4516,0.0707 -0.9,0.056 -1.352533,-0.048 -0.372933,-0.0867 -0.821333,-0.30934 -1.348933,-0.672 -0.521467,-0.36267 -0.9032,-0.85067 -1.137067,-1.46534 z m 1.084933,-8.43866 c 0.492667,-2.13734 1.7672,-2.97067 3.825467,-2.49467 0.647467,0.14933 1.153733,0.45067 1.519867,0.90133 0.3656,0.45067 0.571866,0.88 0.630666,1.288 -1.055733,0.22 -2.121866,0.58667 -3.1984,1.10267 -1.0776,0.51733 -1.931733,1.03467 -2.574533,1.55333 -0.1328,-0.316 -0.223867,-0.684 -0.272933,-1.108 -0.04893,-0.42533 -0.02387,-0.83866 0.06987,-1.24266 z m 6.2484,0.628 c 0.09267,0.288 0.144267,0.82533 0.1396,1.61066 5.34e-4,0.78534 -0.07453,1.492 -0.2188,2.11867 l -0.216666,0.93867 c -0.08853,0.33066 -0.188534,0.73866 -0.301467,1.22666 -0.111467,0.484 -0.190667,0.78 -0.2376,0.87867 -1.207733,-0.67467 -2.173333,-1.32933 -2.89,-1.96667 -0.716133,-0.63866 -1.249067,-1.312 -1.607333,-2.02133 0.376,-0.332 0.817733,-0.66533 1.318266,-1 0.5,-0.336 1.100534,-0.66933 1.8124,-1.004 0.705334,-0.33067 1.441734,-0.59333 2.2016,-0.78133 z m 8.376533,3.86 c 0.460534,0.272 0.669334,0.51066 0.621467,0.72133 -0.048,0.20667 -0.340133,0.32533 -0.881867,0.35467 -0.535866,0.0293 -1.171866,-0.0387 -1.8968,-0.20667 -0.7256,-0.16667 -1.3172,-0.38 -1.781866,-0.63333 -0.4588,-0.25334 -0.668667,-0.48667 -0.6224,-0.692 0.04907,-0.21067 0.348533,-0.336 0.8996,-0.38134 0.544666,-0.0427 1.171333,0.0173 1.873866,0.18 0.7256,0.168 1.321867,0.38667 1.788,0.65734 z M 42.208266,252.572 c 0.889066,-0.41466 1.628133,-1.06666 2.2152,-1.95466 0.3656,0.172 0.975466,0.40667 1.834933,0.70533 0.8588,0.30134 1.5952,0.52134 2.209866,0.66267 2.604667,0.60133 4.8844,0.656 6.838534,0.15866 1.9536,-0.49466 3.156266,-1.70666 3.601066,-3.63333 0.3728,-1.616 4e-4,-2.98 -1.124533,-4.088 -1.120267,-1.10666 -2.6344,-1.87866 -4.5312,-2.316 -1.595867,-0.36933 -2.927067,-0.404 -3.9964,-0.10266 -1.073467,0.296 -1.704667,0.87066 -1.9016,1.72 -0.2296,0.996 0.08133,1.81333 0.938,2.45466 0.851067,0.64134 1.828133,1.08934 2.9276,1.344 1.121467,0.25734 2.188133,0.30134 3.202667,0.128 1.009866,-0.17333 1.615066,-0.684 1.812,-1.53466 0.177066,-0.76667 -0.150534,-1.46134 -0.976534,-2.08267 -0.8324,-0.62 -1.751066,-1.04533 -2.766666,-1.28 l -0.278134,-0.064 c 0.2124,0.0173 0.3896,0.04 0.530134,0.0667 0.1412,0.0253 0.308933,0.0613 0.504666,0.10666 1.3224,0.30534 2.411467,0.85734 3.2672,1.656 0.854667,0.80134 1.179734,1.66134 0.9656,2.58934 -0.193733,0.83733 -0.7124,1.42933 -1.5624,1.77733 -0.85,0.34533 -1.816133,0.51067 -2.898933,0.48933 -1.081867,-0.0213 -2.116267,-0.148 -3.104267,-0.376 -0.876,-0.20133 -1.615066,-0.41333 -2.204133,-0.63466 -0.589067,-0.22 -1.192666,-0.45867 -1.802666,-0.716 0.0172,-0.0773 0.04013,-0.17734 0.06987,-0.304 0.02867,-0.124 0.07653,-0.332 0.142134,-0.61734 l 0.649066,-2.81066 c 0.147867,-0.64 0.198933,-1.34534 0.147333,-2.11467 -0.0464,-0.768 -0.137466,-1.38933 -0.268799,-1.864 0.749999,-0.144 1.707866,-0.192 2.867199,-0.14933 1.159467,0.0427 2.433867,0.224 3.828667,0.54533 2.924,0.67467 5.257333,1.81867 6.9912,3.42267 1.738533,1.60666 2.359866,3.472 1.868133,5.6 -0.440533,1.908 -1.576,3.18933 -3.414,3.84133 -1.836933,0.65333 -3.719733,0.92 -5.660933,0.79733 -1.940667,-0.12 -3.633867,-0.348 -5.073467,-0.68 l -3.051599,-0.704 -0.206667,0.89333 3.119733,0.72 c 2.381733,0.55067 4.735467,0.96934 7.055733,1.25467 2.319867,0.28533 4.656267,0.0947 7.009867,-0.58 2.3584,-0.66933 3.816133,-2.22667 4.379733,-4.66666 0.455733,-1.97334 0.038,-3.704 -1.252133,-5.188 -1.2848,-1.48667 -2.9156,-2.67334 -4.883334,-3.56667 -1.962933,-0.89067 -3.873333,-1.55067 -5.731199,-1.98 -1.188,-0.27467 -2.304134,-0.45733 -3.357334,-0.55333 -1.047333,-0.0947 -1.968666,-0.12534 -2.768666,-0.0973 -0.800534,0.028 -1.483334,0.084 -2.048533,0.16934 -0.221867,-0.544 -0.579067,-1.08267 -1.068134,-1.612 -0.4948,-0.53067 -1.241733,-0.90934 -2.257333,-1.144 -1.5396,-0.35467 -2.741733,-0.188 -3.611467,0.5 -0.869733,0.684 -1.4224,1.528 -1.652666,2.52266 -0.166134,0.72 -0.242667,1.43467 -0.224934,2.14667 0.01307,0.708 0.09893,1.328 0.253067,1.85467 -0.287467,0.30666 -0.610933,0.73866 -0.969733,1.3 -0.3536,0.564 -0.619334,1.232 -0.797334,2.004 -0.387066,1.67733 -0.349066,3.03733 0.113467,4.09066 0.462533,1.048 1.5364,1.76933 3.221333,2.15733 1.032267,0.23867 1.9932,0.15067 2.881734,-0.264"
         inkscape:connector-curvature="0" /><path
         id="path66"
         style="fill:#231f87;fill-opacity:1;fill-rule:nonzero;stroke:none"
         d="m 94.249464,367.2292 c 0.2656,-0.9292 0.186534,-1.60266 -0.245866,-2.02133 -0.4624,-0.4464 -1.1452,-0.51573 -2.044267,-0.21467 -0.897867,0.30267 -1.75,0.87187 -2.557733,1.70947 l 3.2604,3.14947 c 0.7916,-0.82147 1.321866,-1.69334 1.587466,-2.62294"
         inkscape:connector-curvature="0" /><path
         id="path68"
         style="fill:#231f87;fill-opacity:1;fill-rule:nonzero;stroke:none"
         d="m 71.593198,332.97347 c 0.5532,-0.79067 0.698,-1.45373 0.425067,-1.9896 -0.292267,-0.57187 -0.914667,-0.86147 -1.862533,-0.86773 -0.947867,-0.007 -1.939067,0.25466 -2.975467,0.78226 l 2.057733,4.03907 c 1.0156,-0.51773 1.801067,-1.1708 2.3552,-1.964"
         inkscape:connector-curvature="0" /><path
         id="path70"
         style="fill:#231f87;fill-opacity:1;fill-rule:nonzero;stroke:none"
         d="m 57.139599,282.792 0.316133,4.52134 c 1.1364,-0.08 2.115067,-0.37334 2.934933,-0.888 0.818667,-0.512 1.210933,-1.06534 1.168667,-1.664 -0.04533,-0.64267 -0.5052,-1.152 -1.374934,-1.528 -0.870399,-0.376 -1.884933,-0.52267 -3.044799,-0.44134"
         inkscape:connector-curvature="0" /><path
         id="path72"
         style="fill:#231f87;fill-opacity:1;fill-rule:nonzero;stroke:none"
         d="m 114.05,396.4172 c -0.37027,1.28693 -1.01974,2.5708 -1.9484,3.84947 -1.0876,1.49586 -2.25574,2.65733 -3.5136,3.49066 -1.25254,0.83174 -2.2312,0.99214 -2.93694,0.47867 l -0.2844,-0.2068 6.5328,-8.99173 c 0.79787,-1.09734 1.4292,-1.47347 1.8964,-1.1348 0.53747,0.39213 0.62347,1.23333 0.25414,2.51453 z m -2.312,-5.70787 c -0.8744,0.27094 -1.69587,0.93334 -2.45627,1.98134 l -6.74533,9.2828 -1.64787,-1.19747 9.0032,-12.39213 -2.83027,-2.05574 -9.939062,13.67974 7.447332,5.40933 c 0.98707,0.7188 2.24013,0.61613 3.76667,-0.3052 1.5256,-0.92293 2.9996,-2.36413 4.42666,-4.3292 1.48427,-2.04267 2.3672,-3.964 2.64574,-5.764 0.2792,-1.8 -0.0905,-3.06667 -1.102,-3.80267 -0.836,-0.6068 -1.6912,-0.77493 -2.5688,-0.5068"
         inkscape:connector-curvature="0" /><path
         id="path74"
         style="fill:#231f87;fill-opacity:1;fill-rule:nonzero;stroke:none"
         d="m 90.808264,371.388 -11.559866,10.048 -1.318667,-1.5172 c 0.316667,0.0771 0.823867,-0.0803 1.5224,-0.46573 0.6952,-0.3848 1.402,-0.89053 2.115067,-1.51187 1.524933,-1.32506 2.3916,-2.4584 2.598933,-3.39853 0.2068,-0.94 -0.02133,-1.788 -0.679733,-2.54533 -0.24,-0.276 -0.498933,-0.50414 -0.7724,-0.67854 -0.2708,-0.18026 -0.516667,-0.236 -0.736933,-0.1828 l 3.716666,-3.2308 1.851067,2.12814 1.189066,-1.03334 -5.885466,-6.76933 -12.762,11.09333 0.551067,0.63334 11.572933,-10.06 1.188533,1.36666 -9.0448,7.86254 2.2948,2.64013 3.271334,-2.84427 c 0.3068,-0.26666 0.621333,-0.45306 0.9412,-0.56666 0.3192,-0.112 0.576533,-0.0599 0.766666,0.1588 0.194267,0.22293 0.218267,0.47613 0.0776,0.76 -0.138,0.28693 -0.357333,0.5572 -0.655733,0.81613 l -2.2864,1.9896 c -0.790133,0.6848 -1.447467,1.13587 -1.962533,1.3452 -0.511467,0.20627 -0.882267,0.17973 -1.106267,-0.076 l -2.667733,-3.0692 -1.2016,1.04373 8.516666,9.79734 12.761467,-11.0932 -2.295334,-2.64014"
         inkscape:connector-curvature="0" /><path
         id="path76"
         style="fill:#231f87;fill-opacity:1;fill-rule:nonzero;stroke:none"
         d="m 97.345331,389.00933 c -0.181333,0.42667 -0.580267,0.99747 -1.1964,1.7052 l -1.138533,1.31094 c -0.713467,0.82146 -1.304667,1.36093 -1.767734,1.61826 -0.4624,0.25894 -0.888,0.22134 -1.2744,-0.11453 -0.05107,-0.0437 -0.09853,-0.18227 -0.145866,-0.4224 -0.04693,-0.23853 -0.0516,-0.42293 -0.01093,-0.56307 0.446934,-0.2396 0.923467,-0.57026 1.426,-0.99066 0.509467,-0.4224 1.100534,-1.02387 1.784934,-1.8104 l 1.7984,-2.0692 0.1844,0.15986 c 0.407866,0.35467 0.521333,0.74947 0.340133,1.176 z m -7.549467,0.49334 c -0.714133,0.2052 -1.277066,0.1348 -1.6844,-0.21987 -0.490666,-0.42707 -0.648933,-0.99733 -0.477066,-1.72027 0.170266,-0.7172 0.638533,-1.5156 1.401066,-2.39319 0.541067,-0.6224 1.1536,-1.07614 1.836934,-1.35574 0.680266,-0.28026 1.319733,-0.16573 1.9136,0.35147 l 1.394666,1.212 -2.344266,2.69746 c -0.645734,0.74267 -1.323867,1.21614 -2.040534,1.42814 z m 7.014534,-9.912 1.3672,1.1896 -2.964,3.4088 -1.3672,-1.18747 z m 3.1084,10.48013 c 0.168132,-1.04533 -0.236534,-1.99733 -1.219867,-2.852 l -0.8448,-0.73493 2.964129,-3.40933 1.72867,1.50253 1.03333,-1.188 -6.369862,-5.53693 -4.0416,4.65053 c -0.593334,-0.36413 -1.357334,-0.30787 -2.3052,0.17333 -0.944267,0.47614 -1.776667,1.12814 -2.486,1.94374 -1.458267,1.67759 -2.2192,3.11626 -2.288533,4.31466 -0.06507,1.19627 0.3432,2.18173 1.229199,2.952 0.5072,0.44013 1.080134,0.77093 1.710934,0.99387 0.6328,0.2156 1.199466,0.25306 1.695333,0.1 -0.1048,0.43333 -0.1,0.87706 0.0072,1.33426 0.112,0.4532 0.359467,0.85214 0.751067,1.19227 0.814533,0.70773 1.774533,0.94267 2.8688,0.70253 1.096266,-0.23853 2.364,-1.18533 3.806266,-2.84533 1.003067,-1.1536 1.59,-2.252 1.760934,-3.2932"
         inkscape:connector-curvature="0" /><path
         id="path78"
         style="fill:#231f20;fill-opacity:1;fill-rule:nonzero;stroke:none"
         d="m 117.13746,385.064 c -0.54013,-0.3504 -1.22346,-0.28946 -2.04733,0.17974 -0.82453,0.46666 -1.5516,1.18959 -2.18547,2.16559 l 3.8016,2.46774 c 0.62027,-0.95574 0.974,-1.91307 1.05774,-2.87707 0.0833,-0.964 -0.1228,-1.60933 -0.62654,-1.936"
         inkscape:connector-curvature="0" /><path
         id="path80"
         style="fill:#231f87;fill-opacity:1;fill-rule:nonzero;stroke:none"
         d="m 71.802132,357.0188 -1.039067,-1.48546 3.700933,-2.59067 1.039067,1.48387 z m -4.216667,2.952 c -0.8068,0.56414 -1.578667,0.85987 -2.3256,0.89067 -0.742133,0.0276 -1.271867,-0.1776 -1.580667,-0.62027 -0.372933,-0.53333 -0.3896,-1.124 -0.04693,-1.78386 0.338533,-0.6532 0.986533,-1.3172 1.938533,-1.98387 0.6756,-0.47187 1.3792,-0.7656 2.109467,-0.8708 0.728533,-0.1068 1.320267,0.1588 1.771867,0.8052 l 1.0604,1.51187 z m 8.196266,5.47614 1.2896,-0.90427 -3.263066,-4.6588 3.7016,-2.59173 1.618266,2.31053 1.290134,-0.90267 -5.145334,-7.34693 -5.046933,3.53333 c -0.488,-0.49733 -1.2432,-0.6276 -2.278666,-0.38906 -1.0312,0.2344 -1.996267,0.66413 -2.882267,1.28386 -1.820267,1.27454 -2.9072,2.48654 -3.265067,3.63494 -0.352133,1.14373 -0.193733,2.1984 0.480267,3.16093 0.487467,0.6964 1.068133,1.20573 1.737467,1.52133 0.667733,0.31614 1.5156,0.35894 2.5468,0.124 1.026666,-0.23026 2.263066,-0.85053 3.707866,-1.86093 l 2.2464,-1.57507 0.671867,0.96054 -7.570933,5.3 2.007333,2.86666 7.570266,-5.3016 0.5844,0.83494"
         inkscape:connector-curvature="0" /><path
         id="path82"
         style="fill:#231f87;fill-opacity:1;fill-rule:nonzero;stroke:none"
         d="M 54.611465,286.73334 39.296399,287 l -0.03547,-2.00933 c 0.194267,0.26267 0.6844,0.468 1.4656,0.62133 0.781334,0.15067 1.647467,0.21867 2.591734,0.20134 2.021866,-0.0347 3.413466,-0.34534 4.176533,-0.932 0.762533,-0.58667 1.132266,-1.384 1.114533,-2.38667 -0.0067,-0.36667 -0.05773,-0.70667 -0.1552,-1.01733 -0.09053,-0.312 -0.2432,-0.51334 -0.445867,-0.61334 l 4.924534,-0.0867 0.04893,2.82133 1.574533,-0.028 -0.1568,-8.96933 -16.906799,0.296 0.01467,0.83866 15.3328,-0.268 0.03067,1.812 -11.982267,0.208 0.0604,3.49867 4.3344,-0.076 c 0.406267,-0.007 0.768267,0.0507 1.085467,0.17067 0.316666,0.11866 0.480666,0.324 0.485866,0.61333 0.0052,0.296 -0.140133,0.50667 -0.430133,0.63333 -0.2896,0.13067 -0.6324,0.19734 -1.0272,0.204 l -3.028533,0.052 c -1.048,0.0187 -1.8396,-0.0587 -2.369333,-0.22933 -0.524534,-0.17067 -0.7916,-0.428 -0.797334,-0.77067 l -0.07187,-4.064 -1.5912,0.0267 0.226533,12.98 16.906266,-0.296 -0.0604,-3.49733"
         inkscape:connector-curvature="0" /><path
         id="path84"
         style="fill:#231f87;fill-opacity:1;fill-rule:nonzero;stroke:none"
         d="m 50.189065,304.45334 c -1.001066,0.30666 -1.979733,0.536 -2.9292,0.68666 -1.119733,0.17734 -2.233333,0.252 -3.343733,0.22667 -1.112,-0.024 -1.6916,-0.20667 -1.7468,-0.55467 -0.0792,-0.50266 0.3744,-0.92933 1.3692,-1.27866 0.993734,-0.348 2.1724,-0.63067 3.536,-0.84667 1.0172,-0.16133 2.0708,-0.17067 3.159867,-0.0307 1.083333,0.14267 1.8672,0.33334 2.340533,0.57334 -0.586933,0.50666 -1.380133,0.91333 -2.385867,1.224 z M 43.811466,296.548 c 1.018266,-0.16133 1.899466,-0.19466 2.638533,-0.10533 0.7448,0.088 1.139066,0.27333 1.184933,0.56 0.04573,0.292 -0.271333,0.592 -0.952667,0.904 -0.675466,0.31067 -1.525466,0.54667 -2.543733,0.708 -1.023466,0.16267 -1.904666,0.19733 -2.643733,0.108 -0.7448,-0.0893 -1.138533,-0.27467 -1.1844,-0.56 -0.0464,-0.29333 0.271333,-0.59333 0.952667,-0.90533 0.674933,-0.31067 1.5244,-0.54667 2.5484,-0.70934 z m 5.449466,18.29867 c 2.804667,-0.444 4.8276,-1.184 6.0604,-2.216 1.240133,-1.03333 1.937067,-2.04667 2.092667,-3.04267 0.155333,-0.99466 0.143333,-2.06133 -0.038,-3.20266 -0.06773,-0.428 -0.245734,-0.86 -0.541067,-1.29867 -0.290133,-0.436 -0.647467,-0.82933 -1.0688,-1.176 0.3136,-0.59067 0.519867,-1.22533 0.615067,-1.90533 0.09533,-0.67734 0.06467,-1.49467 -0.08693,-2.44934 -0.312,-1.97066 -1.393733,-3.42266 -3.252133,-4.356 -1.852,-0.932 -4.203067,-1.172 -7.054133,-0.72 -2.635333,0.41734 -4.556267,1.06134 -5.757333,1.932 -1.202,0.86534 -1.7228,1.82534 -1.558267,2.868 0.1964,1.23467 0.936933,2.06667 2.215067,2.49067 1.284933,0.424 2.724533,0.50667 4.319866,0.25467 1.6448,-0.26134 3.014533,-0.76267 4.126,-1.50534 1.106267,-0.744 1.584933,-1.60133 1.430267,-2.57466 -0.157334,-0.99734 -0.880267,-1.676 -2.166667,-2.04 -1.287067,-0.36534 -2.756266,-0.416 -4.4016,-0.156 l -0.469333,0.0747 c -0.05933,-0.009 -0.0676,-0.0267 -0.02547,-0.052 0.245334,-0.0947 0.556267,-0.184 0.9192,-0.272 0.362534,-0.088 0.767734,-0.168 1.214134,-0.23866 1.917733,-0.30267 3.509333,-0.284 4.764533,0.064 1.254266,0.344 2.186,0.84533 2.794266,1.5 0.607867,0.65333 0.960934,1.312 1.0636,1.96133 0.126534,0.796 0.1068,1.516 -0.0636,2.15733 -0.1708,0.64134 -0.493733,1.168 -0.968133,1.57734 -0.1772,-0.1 -0.604267,-0.22934 -1.272933,-0.388 -0.673467,-0.156 -1.4568,-0.27067 -2.354667,-0.33867 -0.898,-0.068 -1.807867,-0.028 -2.724,0.11733 -2.3412,0.37067 -4.191733,0.92 -5.531333,1.64267 -1.346267,0.724 -1.921867,1.70133 -1.726533,2.93733 0.175066,1.10534 1.057866,1.80934 2.6532,2.10934 1.5896,0.30133 3.425466,0.288 5.501066,-0.0413 1.3744,-0.21733 2.726,-0.616 4.054667,-1.19466 1.328666,-0.57734 2.326533,-1.344 2.998933,-2.29734 0.177067,0.24134 0.290133,0.40534 0.333333,0.49334 0.04267,0.0933 0.08747,0.3 0.138,0.61866 0.107867,0.68267 5.34e-4,1.35867 -0.3292,2.02534 -0.328666,0.66666 -1.001466,1.28533 -2.0124,1.856 -1.011066,0.572 -2.432933,1.004 -4.271466,1.29466 -1.961867,0.31067 -3.5536,0.39867 -4.774933,0.268 -1.221334,-0.13333 -1.8812,-0.532 -1.986534,-1.196 -0.01867,-0.12 -0.01293,-0.26533 0.01147,-0.44 l -0.602,0.0773 c -0.401067,0.36 -0.651067,0.68666 -0.760933,0.97866 -0.1104,0.28934 -0.119867,0.708 -0.03333,1.256 0.178134,1.12134 1.154667,1.90534 2.922934,2.34667 1.7744,0.44533 3.639999,0.512 5.603066,0.2"
         inkscape:connector-curvature="0" /><path
         id="path86"
         style="fill:#231f87;fill-opacity:1;fill-rule:nonzero;stroke:none"
         d="m 50.447865,327.57187 c -1.034266,0.33747 -1.819733,0.4948 -2.348933,0.4776 -0.5292,-0.0177 -0.875467,-0.26667 -1.033867,-0.7536 -0.0208,-0.0641 0.0104,-0.2104 0.0928,-0.43707 0.08173,-0.2296 0.173867,-0.39053 0.280134,-0.48946 0.507866,0.0239 1.086,-0.012 1.733333,-0.11467 0.653733,-0.1 1.469867,-0.31093 2.462,-0.63227 l 2.6088,-0.84786 0.07507,0.23226 c 0.166666,0.51294 0.0604,0.9104 -0.314534,1.18227 -0.375066,0.27347 -1.011466,0.55787 -1.904266,0.84693 z m -4.500933,-5.9036 c -0.200533,-0.61773 -0.04333,-1.1896 0.476534,-1.7204 0.515599,-0.52653 1.329199,-0.9708 2.433866,-1.3292 0.784267,-0.256 1.5432,-0.328 2.2724,-0.216 0.7276,0.11067 1.216133,0.53853 1.459333,1.2864 l 0.571867,1.75787 -3.3984,1.1052 c -0.937067,0.3036 -1.762,0.35986 -2.485467,0.1708 -0.717733,-0.1896 -1.163066,-0.54174 -1.330133,-1.05467 z m 12.447867,-3.82693 0.5604,1.72266 -4.2968,1.39587 -0.56,-1.7224 z M 55.663065,328.424 c 0.682267,-0.80786 0.823867,-1.83333 0.4224,-3.07093 l -0.3464,-1.06507 4.296933,-1.39586 0.7072,2.17866 1.498,-0.48693 -2.607866,-8.02787 -5.859867,1.90534 c -0.3208,-0.61734 -1.0052,-0.96267 -2.0656,-1.03867 -1.054266,-0.0773 -2.102133,0.0507 -3.131866,0.38533 -2.112933,0.68667 -3.506667,1.528 -4.184267,2.5212 -0.670933,0.99054 -0.827733,2.04534 -0.4652,3.16294 0.2068,0.63853 0.5276,1.21573 0.954134,1.73186 0.431333,0.512 0.897466,0.8348 1.401066,0.95987 -0.3124,0.31613 -0.536933,0.7 -0.680133,1.14787 -0.138,0.44533 -0.130267,0.9152 0.0296,1.4084 0.333333,1.02493 1.035466,1.7224 2.097466,2.07866 1.062534,0.36147 2.635867,0.20254 4.727067,-0.4776 1.454133,-0.47293 2.522933,-1.11053 3.207333,-1.9172"
         inkscape:connector-curvature="0" /><path
         id="path88"
         style="fill:#231f87;fill-opacity:1;fill-rule:nonzero;stroke:none"
         d="m 60.059865,335.49214 -0.736933,-1.65467 4.1276,-1.83747 0.736933,1.65467 z m -4.702533,2.09333 c -0.899467,0.40093 -1.714133,0.54373 -2.453733,0.43173 -0.733867,-0.11306 -1.213467,-0.4188 -1.4328,-0.9104 -0.264534,-0.5932 -0.167734,-1.17866 0.294266,-1.76146 0.457867,-0.57707 1.219867,-1.10267 2.281334,-1.576 0.753066,-0.336 1.5,-0.48814 2.237466,-0.45214 0.734934,0.0333 1.2656,0.40827 1.585867,1.12654 l 0.752133,1.6896 z m 6.124933,1.1036 4.1276,-1.83853 0.931733,2.09213 1.439067,-0.64 -3.4328,-7.71053 -5.628533,2.50626 c -0.383867,-0.5796 -1.1,-0.85146 -2.162533,-0.8172 -1.0568,0.0333 -2.086534,0.27187 -3.074534,0.712 -2.0296,0.90414 -3.328133,1.88547 -3.897866,2.94427 -0.564667,1.05573 -0.6104,2.12133 -0.1328,3.19427 0.346266,0.7776 0.8192,1.388 1.4156,1.82706 0.595866,0.436 1.419733,0.6396 2.476533,0.60627 1.0516,-0.0301 2.383867,-0.4036 3.995333,-1.12133 l 2.5052,-1.11454 0.905733,2.03334 1.438534,-0.6396 -0.906267,-2.03387"
         inkscape:connector-curvature="0" /></g><g
       id="g4330"><path
         id="path90"
         style="fill:#231f87;fill-opacity:1;fill-rule:nonzero;stroke:none"
         d="m 105.36933,168.71067 c -1.35573,-0.464 -2.5152,-1.42266 -3.48293,-2.87733 -0.70614,-1.08533 -0.99467,-2.272 -0.8676,-3.56133 0.13013,-1.28534 0.66866,-2.30134 1.6192,-3.044 0.26466,-0.20534 0.56466,-0.384 0.90106,-0.53334 0.0437,1.724 0.4016,3.144 1.07654,4.26267 0.674,1.11733 1.58706,2.176 2.73706,3.17733 l 1.66454,-1.30133 c -0.25,-0.17333 -0.45734,-0.36533 -0.62187,-0.57733 -0.31667,-0.404 -0.4516,-0.83067 -0.40413,-1.27867 0.0473,-0.448 0.2572,-0.832 0.6312,-1.152 0.42546,-0.36133 0.9604,-0.43867 1.60053,-0.23733 0.56307,0.212 0.988,0.53866 1.27973,0.98533 0.5452,0.84267 0.5984,1.8 0.16347,2.876 -0.36347,0.98667 -1.00627,1.81467 -1.93173,2.48133 -1.39747,1.00667 -2.8532,1.264 -4.36507,0.78 z m 1.38587,-9.76533 c 0.4036,-0.82533 1.04893,-1.54133 1.93546,-2.14933 1.11454,-0.78667 2.31507,-1.1 3.60054,-0.94267 1.1468,0.12533 2.1504,0.57467 3.0104,1.348 -0.55467,-0.02 -1.0964,0.248 -1.62667,0.804 -0.6536,0.652 -0.89893,1.35467 -0.73587,2.10533 -1.11773,-1.14 -2.5328,-1.40933 -4.2464,-0.80666 -0.31506,0.104 -0.63066,0.28 -0.94786,0.528 -0.8276,0.64533 -1.21667,1.29066 -1.1688,1.93333 -0.41507,-0.89467 -0.3552,-1.83467 0.1792,-2.82 z m 0.16453,-9.31333 c 0.29907,-0.23467 0.64173,-0.33067 1.0272,-0.292 0.3848,0.0387 0.70093,0.21733 0.9484,0.53333 0.2344,0.3 0.32813,0.63733 0.28173,1.01467 -0.0464,0.376 -0.22813,0.688 -0.5448,0.936 -0.29893,0.23333 -0.63746,0.33466 -1.0156,0.304 -0.37866,-0.0307 -0.6916,-0.204 -0.93906,-0.52134 -0.2344,-0.3 -0.3312,-0.64 -0.29214,-1.02533 0.0396,-0.38667 0.2172,-0.70267 0.53427,-0.94933 z m 9.05,9.51466 c 0.52813,-0.412 0.97813,-0.38133 1.3496,0.0933 0.71507,0.916 0.98173,1.98266 0.8,3.20266 -0.2292,-0.33066 -0.63027,-0.66266 -1.20267,-0.996 -0.57133,-0.332 -0.9328,-0.596 -1.08493,-0.78933 -0.4536,-0.58133 -0.40773,-1.084 0.138,-1.51067 z m 0.19693,6.56534 c -0.2292,0.17866 -0.46613,0.29333 -0.71093,0.34266 0.138,-1.384 -0.0391,-2.53466 -0.53067,-3.456 1.04574,0.68667 1.62387,1.09867 1.73374,1.24 0.0964,0.12267 0.16146,0.24267 0.1948,0.35734 0.1756,0.516 -0.0536,1.02133 -0.68694,1.516 z m -4.2552,5.876 c 1.10574,-0.836 1.91614,-1.66667 2.43494,-2.49067 0.34533,-0.57467 0.6984,-1.44667 1.0572,-2.62 l 1.11413,1.42667 c 0.3276,-0.19867 0.64013,-0.41467 0.9396,-0.64934 1.88333,-1.472 2.85413,-3.34933 2.912,-5.63466 0.0457,-2.19067 -0.7256,-4.26667 -2.3152,-6.22934 -2.1432,-2.63466 -4.49373,-3.84533 -7.05053,-3.63466 0.67613,-1.09467 0.5876,-2.188 -0.2656,-3.27867 -0.16454,-0.212 -0.36307,-0.41067 -0.5948,-0.59867 -1.29267,-1.00266 -2.87187,-1.172 -4.7364,-0.51066 -1.3308,0.47333 -2.94747,1.45333 -4.8484,2.93866 -3.961469,3.09467 -5.466269,6.08534 -4.515736,8.97067 0.3376,1.01333 0.848,1.64933 1.5328,1.908 l 1.6636,-1.3 c -0.485466,-0.32933 -0.778666,-0.724 -0.881733,-1.18267 -0.144267,-0.76533 0.163467,-1.71466 0.922933,-2.84666 0.733736,-1.056 1.770796,-2.10667 3.108266,-3.152 0.5984,-0.468 1.176,-0.89067 1.7312,-1.268 -0.008,0.46133 0.19333,0.95466 0.60627,1.48266 0.48133,0.61734 1.0276,0.89867 1.63853,0.84667 -1.49573,1.16933 -2.43747,2.74 -2.82293,4.71467 l -1.1556,-1.48 c -0.32294,0.168 -0.7568,0.46533 -1.30267,0.89066 -0.84533,0.66134 -1.471866,1.492 -1.881199,2.492 -0.312,0.72534 -0.498533,1.55867 -0.551067,2.50667 -0.133866,2.004 0.695334,4.156 2.494266,6.45733 1.41253,1.80934 3.0416,2.96667 4.888,3.48134 2.07653,0.55333 4.03747,0.14133 5.87813,-1.24"
         inkscape:connector-curvature="0" /><path
         id="path92"
         style="fill:#231f87;fill-opacity:1;fill-rule:nonzero;stroke:none"
         d="m 235.72666,126.59334 c 1.11733,0.24533 1.54267,0.78267 1.272,1.612 -0.22,0.67867 -0.872,0.84267 -1.956,0.49067 z m -1.988,6.11867 0.76533,-2.35734 c 1.15467,0.42134 2.192,0.536 3.11334,0.34 0.92,-0.19333 1.51866,-0.716 1.796,-1.56533 0.288,-0.892 0.19866,-1.69733 -0.27467,-2.41467 -0.428,-0.632 -1.08933,-1.09333 -1.98133,-1.384 l -4.39734,-1.428 -0.48666,1.49734 1.59333,0.51866 -0.71467,2.19867 -1.52933,-0.49733 -0.508,1.56133 1.52933,0.49733 -1.532,4.71734 c 0.73067,-0.656 1.604,-1.21734 2.62667,-1.684"
         inkscape:connector-curvature="0" /><path
         id="path94"
         style="fill:#231f87;fill-opacity:1;fill-rule:nonzero;stroke:none"
         d="m 121.3864,163.24934 -1.55774,1.21733 c 0.49894,0.34667 0.74214,0.82267 0.73174,1.42667 0.002,0.764 -0.4224,1.69067 -1.27187,2.78 -0.776,1.004 -1.73587,1.952 -2.88027,2.84667 -2.588,2.02133 -4.6552,2.91333 -6.20093,2.67466 -0.67347,-0.0973 -1.14533,-0.39466 -1.41987,-0.88933 l -1.63693,1.27867 c 0.008,0.192 0.12973,0.43866 0.36307,0.73733 0.59213,0.75733 1.32026,1.308 2.1848,1.652 1.4276,0.55733 2.90733,0.56533 4.438,0.02 1.26466,-0.44933 2.7428,-1.33333 4.43293,-2.65467 3.8192,-2.984 5.29267,-5.90666 4.41813,-8.768 -0.3156,-1.05733 -0.84893,-1.83066 -1.60106,-2.32133"
         inkscape:connector-curvature="0" /><path
         id="path96"
         style="fill:#231f87;fill-opacity:1;fill-rule:nonzero;stroke:none"
         d="m 243.66266,141.85734 c -0.552,1.69867 -1.716,2.86 -3.492,3.48 -1.35333,0.47733 -2.80533,0.464 -4.356,-0.04 -1.93333,-0.62933 -3.30933,-1.74533 -4.12533,-3.34933 -0.604,-1.18267 -0.68667,-2.444 -0.252,-3.78134 0.46266,-1.424 1.348,-2.52266 2.656,-3.296 1.54133,-0.908 3.36266,-1.02133 5.46533,-0.33733 1.23333,0.4 2.24533,1.01067 3.03467,1.83067 0.85466,0.91333 1.308,1.94133 1.35866,3.084 0.0493,0.86266 -0.0467,1.66533 -0.28933,2.40933 z m -0.15067,-7.44933 c -1.032,-0.80534 -2.392,-1.424 -4.08533,-1.856 1.33333,-0.34134 2.444,-0.78 3.33467,-1.312 0.88933,-0.53334 1.68133,-1.14534 2.376,-1.836 l -3.37867,-1.09867 c -0.51867,0.51333 -1.35467,1.13467 -2.508,1.864 -2.112,1.076 -3.70267,1.816 -4.77333,2.21867 -1.62534,0.74133 -2.88934,1.552 -3.78534,2.43466 -0.98266,0.99734 -1.708,2.25334 -2.176,3.768 -0.68933,2.26667 -0.55066,4.372 0.41334,6.31867 0.96533,1.94667 2.62,3.35867 4.96533,4.23867 2.62133,0.96933 5.092,0.93733 7.41067,-0.0933 2.32133,-1.032 3.87866,-2.76933 4.672,-5.21333 1.292,-3.97333 0.46933,-7.11733 -2.46534,-9.43333"
         inkscape:connector-curvature="0" /><path
         id="path98"
         style="fill:#231f87;fill-opacity:1;fill-rule:nonzero;stroke:none"
         d="m 256.73199,156.49601 c 0.005,0.004 0.012,0.005 0.0173,0.009 l 0.0173,-0.0293 c -0.0133,0.005 -0.0213,0.0133 -0.0347,0.02"
         inkscape:connector-curvature="0" /><path
         id="path100"
         style="fill:#231f87;fill-opacity:1;fill-rule:nonzero;stroke:none"
         d="m 255.79733,152.86934 c -1.1,0.0867 -2.18534,-0.17067 -3.26134,-0.76933 -1.376,-0.744 -2.22533,-1.80534 -2.54933,-3.18267 -0.312,-1.29467 -0.11067,-2.67467 0.604,-4.14133 0.61733,-1.26534 1.51733,-2.21867 2.7,-2.85867 1.30133,-0.68267 2.58533,-0.716 3.84933,-0.0987 0.384,0.18534 0.73467,0.432 1.05734,0.73867 -1.50934,0.804 -2.62,1.75467 -3.32934,2.85067 -0.708,1.096 -1.25466,2.37066 -1.64,3.824 l 1.89734,0.92533 c 0.0373,-0.28133 0.11466,-0.54133 0.232,-0.78267 0.20666,-0.42133 0.504,-0.716 0.89733,-0.88533 0.39333,-0.16933 0.796,-0.16533 1.208,0.0107 0.58133,0.23466 0.92,0.68533 1.016,1.35466 0.096,0.56667 0.001,1.09334 -0.284,1.576 -0.5,0.87467 -1.3,1.35334 -2.39733,1.43867 z m 0.96933,3.60667 c 1.72133,-0.76667 3.004,-1.98134 3.84,-3.64534 1.13867,-2.22933 0.94533,-4.02533 -0.57867,-5.38933 -0.24,-0.21867 -0.532,-0.41067 -0.87333,-0.57733 -0.80267,-0.392 -1.55467,-0.53334 -2.252,-0.42667 1.11467,-1.42 2.852,-1.46667 5.21467,-0.14133 1.204,0.68666 1.97466,1.73333 2.308,3.14 0.33333,1.40533 0.20266,2.79466 -0.39467,4.17066 -0.98533,2.27734 -2.372,3.54 -4.15867,3.78667 -1.052,0.13067 -2.09333,-0.168 -3.12266,-0.888 l -0.948,1.51733 0.71066,0.444 c -0.0427,0.068 -0.068,0.14 -0.104,0.208 0.0507,0.0267 0.0987,0.06 0.15067,0.0853 2.148,1.048 4.26267,1.09733 6.34133,0.148 1.98934,-0.91867 3.51734,-2.52267 4.584,-4.812 1.056,-2.268 1.35067,-4.34934 0.88134,-6.24267 -0.49867,-2.03467 -1.83734,-3.61867 -4.01734,-4.756 -1.89866,-1.00133 -3.904,-1.22133 -6.016,-0.66 l 0.852,-1.74667 c -0.232,-0.18933 -0.548,-0.38 -0.95066,-0.576 -1.30534,-0.63733 -2.47734,-0.90933 -3.51467,-0.82 -3.06533,0.27067 -5.46,2.172 -7.184,5.70667 -1.00667,2.068 -1.33867,4.044 -0.99067,5.92933 0.412,2.11467 1.64134,3.696 3.69067,4.744 1.27467,0.648 2.368,1.032 3.276,1.15734 0.53333,0.0813 1.18533,0.076 1.95467,-0.0147 0.45333,-0.30933 0.952,-0.54133 1.50666,-0.67067 l -0.20533,0.32934"
         inkscape:connector-curvature="0" /><path
         id="path102"
         style="fill:#231f87;fill-opacity:1;fill-rule:nonzero;stroke:none"
         d="m 255.56399,158.20001 0.73467,-1.50534 c -0.292,0.052 -0.56933,0.092 -0.83333,0.12267 -0.552,0.37733 -1.03867,0.87467 -1.44,1.51867 -0.17734,0.284 -0.304,0.548 -0.37734,0.792 -0.36933,1.13866 -0.356,2.22666 0.0373,3.26266 0.39333,1.036 1.08133,1.86134 2.06533,2.47734 1.28933,0.80533 2.6,1.03733 3.932,0.69733 1.332,-0.34 2.39467,-1.144 3.18667,-2.41467 0.16666,-0.264 0.32,-0.55066 0.45866,-0.85866 l -1.704,-1.06667 c -0.38666,0.78667 -1.00266,1.33067 -1.84933,1.632 -0.84667,0.3 -1.61067,0.23733 -2.29333,-0.18933 -0.72,-0.44934 -1.168,-1.09067 -1.344,-1.92534 -0.16134,-0.75333 -0.06,-1.44 0.27066,-2.068 -0.28666,-0.14666 -0.57066,-0.29866 -0.844,-0.47466"
         inkscape:connector-curvature="0" /><path
         id="path104"
         style="fill:#231f87;fill-opacity:1;fill-rule:nonzero;stroke:none"
         d="m 277.66799,154.92001 c 0.11334,-0.364 0.13467,-0.71734 0.0613,-1.05867 0.39866,0.14267 0.76533,0.344 1.1,0.60667 0.65066,0.508 1.03866,1.13733 1.16266,1.88533 0.112,0.65467 0.008,1.296 -0.312,1.924 l -2.95866,-2.30933 c 0.46533,-0.23334 0.78133,-0.58134 0.94666,-1.048 z m 11.85467,3.224 c -0.224,-2.86934 -1.56,-5.26 -4.008,-7.172 -1.63733,-1.27867 -3.35733,-2.07067 -5.16133,-2.37467 -1.884,-0.30933 -3.62667,-0.04 -5.224,0.80933 l 1.74133,1.36134 c 2.612,-0.76667 5.068,-0.208 7.36933,1.67466 2.10534,1.73067 3.184,3.70667 3.23334,5.92934 0.0493,2.07866 -0.66,4.02 -2.12534,5.82266 -1.36933,1.68 -2.99066,2.66667 -4.86533,2.96134 -2.012,0.32666 -3.93333,-0.20934 -5.76,-1.608 -0.96533,-0.72534 -1.72533,-1.42 -2.28533,-2.08267 -1.768,-2.092 -2.064,-3.98133 -0.88667,-5.66933 0.50133,-0.71334 1.172,-1.08267 2.01333,-1.10667 0.764,0.003 1.50667,0.284 2.22934,0.848 l 4.77866,3.73467 c 1.04,-1.25734 1.54934,-2.68134 1.52934,-4.27067 -0.02,-1.588 -0.62,-2.9 -1.796,-3.93333 -0.96667,-0.868 -1.98134,-1.42 -3.04534,-1.65467 -1.34266,-0.31333 -2.39333,0.0147 -3.14933,0.98267 -0.61867,0.79333 -0.64267,1.568 -0.0733,2.32533 -1.89867,-0.436 -3.544,0.164 -4.93467,1.8 -1.656,1.93733 -2.152,4.06 -1.48667,6.36533 0.61467,2.152 2.12,4.16534 4.51334,6.03467 2.39466,1.87067 5.04133,2.49333 7.94133,1.86667 2.696,-0.58667 4.98667,-2.08534 6.872,-4.496 1.93867,-2.484 2.8,-5.19867 2.58,-8.148"
         inkscape:connector-curvature="0" /><path
         id="path106"
         style="fill:#231f87;fill-opacity:1;fill-rule:nonzero;stroke:none"
         d="m 191.92666,125.15334 c -1.184,0.02 -2.072,0.28133 -2.668,0.78267 l 0.0373,2.07866 c 0.46133,-0.388 1.04,-0.56666 1.732,-0.53333 0.672,0.032 1.27733,0.77067 1.816,2.21333 0.516,1.35467 0.78666,2.824 0.81466,4.41067 0.028,1.58533 -0.204,3.04133 -0.69466,4.368 -0.492,1.328 -1.08267,2.008 -1.77467,2.04267 -0.73733,0.0347 -1.29733,-0.1 -1.68267,-0.40667 l 0.0347,2.01067 c 0.74533,0.41066 1.59733,0.60933 2.55867,0.592 1.67466,-0.0293 3.02133,-1.00267 4.03866,-2.92 0.908,-1.69067 1.34267,-3.60934 1.30534,-5.75334 -0.0373,-2.18933 -0.52,-4.15733 -1.44267,-5.908 -1.064,-2.01333 -2.42133,-3.00666 -4.07467,-2.97733"
         inkscape:connector-curvature="0" /><path
         id="path108"
         style="fill:#231f87;fill-opacity:1;fill-rule:nonzero;stroke:none"
         d="m 160.94,141.62934 c -0.47334,1.16667 -1.32534,1.916 -2.55467,2.24533 -0.84267,0.22534 -1.65333,0.17734 -2.43333,-0.14533 -1.168,-0.47467 -1.916,-1.32533 -2.24534,-2.556 -0.22666,-0.84133 -0.17866,-1.652 0.14534,-2.43333 0.47333,-1.16667 1.32533,-1.916 2.556,-2.24534 0.84133,-0.22533 1.652,-0.17733 2.432,0.14534 1.168,0.47466 1.916,1.32666 2.24533,2.556 0.22667,0.84133 0.17733,1.652 -0.14533,2.43333 z m -0.236,-6.32133 c -1.52134,-0.84 -3.12267,-1.036 -4.80667,-0.58534 -1.74667,0.46934 -3.05467,1.47867 -3.924,3.02934 -0.86667,1.55066 -1.076,3.168 -0.62533,4.852 0.46933,1.748 1.47866,3.05466 3.02933,3.92266 1.55067,0.868 3.168,1.07734 4.85067,0.62534 1.748,-0.468 3.06933,-1.492 3.96533,-3.07334 0.84,-1.52133 1.036,-3.12266 0.584,-4.80533 -0.468,-1.748 -1.492,-3.07067 -3.07333,-3.96533"
         inkscape:connector-curvature="0" /><path
         id="path110"
         style="fill:#231f87;fill-opacity:1;fill-rule:nonzero;stroke:none"
         d="m 220.28933,136.56001 c -0.33334,0.224 -0.70934,0.3 -1.128,0.22666 -0.396,-0.0707 -0.70667,-0.272 -0.93067,-0.60666 -0.22533,-0.33467 -0.30133,-0.71067 -0.22667,-1.12934 0.0693,-0.396 0.272,-0.70666 0.60667,-0.93066 0.33333,-0.22534 0.71067,-0.3 1.12933,-0.22667 0.396,0.0707 0.70534,0.27333 0.93067,0.60667 0.224,0.33466 0.3,0.712 0.22533,1.12933 -0.0693,0.396 -0.272,0.70533 -0.60666,0.93067 z m 0.49866,-8.81067 c -2.464,-0.43467 -4.656,0.007 -6.58,1.324 -1.92133,1.31733 -3.112,3.27333 -3.56933,5.87067 -0.43067,2.44133 0.0307,4.616 1.38533,6.52133 1.35334,1.90667 3.22,3.06933 5.59467,3.488 2.08933,0.368 4.00267,-0.02 5.736,-1.16667 1.732,-1.14666 2.78933,-2.79733 3.17067,-4.95333 0.30933,-1.76 -0.0773,-3.26933 -1.16,-4.52667 -1.08134,-1.256 -2.52534,-2.044 -4.32934,-2.36133 -1.25466,-0.22133 -2.35333,-0.0987 -3.29866,0.37067 -1.01867,0.5 -1.62667,1.312 -1.824,2.43466 -0.19067,1.07867 0.009,1.99867 0.60266,2.76 0.59067,0.76267 1.41467,1.23734 2.47067,1.42267 0.836,0.148 1.64533,-0.004 2.42933,-0.45733 0.78134,-0.45067 1.23734,-1.04 1.36534,-1.76667 0.19066,-1.07733 0.068,-1.92667 -0.36667,-2.548 1.4,0.67733 1.952,1.85333 1.65867,3.52533 -0.21734,1.23067 -0.932,2.12667 -2.14267,2.68534 -1.06533,0.51466 -2.236,0.66 -3.51333,0.43466 -1.67067,-0.29466 -2.98667,-1.04266 -3.94267,-2.244 -0.956,-1.2 -1.292,-2.604 -1.00933,-4.20933 0.284,-1.60667 1.15066,-2.86 2.60266,-3.76133 1.41734,-0.83867 2.96267,-1.11067 4.63467,-0.816 1.18933,0.20933 2.21867,0.60666 3.092,1.19066 0.97333,0.64934 1.428,1.35334 1.36267,2.11334 l 1.98,0.348 c 0.124,-1.08934 -0.16534,-2.092 -0.864,-3.00934 -1.01734,-1.31333 -2.84534,-2.204 -5.48534,-2.66933"
         inkscape:connector-curvature="0" /><path
         id="path112"
         style="fill:#231f87;fill-opacity:1;fill-rule:nonzero;stroke:none"
         d="m 184.40133,139.90534 c -0.74933,0.85733 -1.568,1.34133 -2.45467,1.44933 -0.31066,0.0373 -0.60533,0.0173 -0.88533,-0.06 0.864,-1.20933 1.18133,-2.756 0.94933,-4.64 -0.24266,-1.97466 -1.13333,-3.644 -2.67466,-5.00666 -1.23867,-1.10934 -2.78667,-1.628 -4.64667,-1.55734 0.79867,-0.27733 1.61867,-0.468 2.46133,-0.572 2.23867,-0.276 4.03734,0.0667 5.39334,1.02667 1.65066,1.16933 2.62266,2.92933 2.91066,5.28 0.048,0.4 0.0747,0.80133 0.08,1.20533 -0.005,1.05867 -0.38266,2.01734 -1.13333,2.87467 z m -5.78267,-1.45067 c -0.356,0.764 -0.89866,1.20134 -1.62666,1.31467 -0.86,0.14933 -1.452,-0.18267 -1.77734,-0.99733 -0.196,-0.49467 -0.38533,-1.58534 -0.57066,-3.27334 l -1.86267,0.22934 c 0.19067,1.552 0.22267,2.64 0.096,3.26266 -0.176,0.944 -0.69733,1.47067 -1.56133,1.576 -0.576,0.0707 -1.07867,-0.0253 -1.504,-0.288 -0.42667,-0.26266 -0.68667,-0.59066 -0.78,-0.984 -0.19467,-0.85466 -0.0733,-1.70266 0.36266,-2.544 l -1.296,0.16 c 0.81734,-1.22533 1.71467,-2.34933 2.692,-3.36933 0.716,-0.764 1.84,-1.23867 3.37067,-1.42667 0.332,-0.0413 0.668,-0.06 1.00533,-0.056 0.944,-0.004 1.78667,0.388 2.52534,1.17467 0.73733,0.788 1.17333,1.72533 1.30666,2.81067 0.112,0.90933 -0.0147,1.71333 -0.38,2.41066 z M 167.98,130.17201 c 0.176,-0.404 0.66533,-0.63334 1.468,-0.68667 0.78266,-0.0507 1.29466,0.17867 1.53733,0.68933 -0.456,0.50667 -0.792,0.88534 -1.00933,1.136 -0.41067,0.50134 -0.72267,0.888 -0.93734,1.16267 0.16534,-0.492 0.14934,-0.98667 -0.0467,-1.48 -0.19467,-0.49333 -0.532,-0.76667 -1.012,-0.82133 z m 17.12933,-1.968 c -1.74267,-1.452 -3.75333,-2.116 -6.03467,-1.99334 -2.50266,0.14934 -4.58533,0.97867 -6.24533,2.488 -1.024,-1.20133 -2.50267,-1.59466 -4.432,-1.17733 -1.05333,0.21867 -1.91867,0.78133 -2.59467,1.68533 -0.67733,0.90534 -0.952,1.87867 -0.824,2.92 0.0787,0.644 0.324,1.17067 0.73467,1.58134 0.41067,0.41066 0.92533,0.57866 1.54667,0.50266 0.13333,-0.016 0.276,-0.0453 0.42933,-0.0867 -0.47333,0.55333 -0.92667,1.172 -1.36,1.85466 -0.43333,0.684 -0.73067,1.19334 -0.892,1.528 l 0.16267,1.33067 1.33066,-0.16267 c -0.444,0.792 -0.58,1.78134 -0.41066,2.97067 0.148,1.03333 0.64266,1.85067 1.48,2.44 0.83733,0.58933 1.78933,0.82133 2.85466,0.69067 1.79467,-0.22 3.01734,-0.80934 3.66534,-1.76667 0.95066,0.784 2.036,1.08933 3.252,0.91733 1.172,-0.16666 2.13333,-0.768 2.884,-1.80666 l 0.16,1.29733 c 0.40933,0.04 0.948,0.02 1.612,-0.0627 1.22,-0.14933 2.11866,-0.43866 2.696,-0.87066 2.612,-2.00934 3.63866,-4.91467 3.08266,-8.71734 -0.32266,-2.25733 -1.35466,-4.11066 -3.09733,-5.56266"
         inkscape:connector-curvature="0" /><path
         id="path114"
         style="fill:#231f87;fill-opacity:1;fill-rule:nonzero;stroke:none"
         d="m 145.36666,154.37334 c -0.45866,0.176 -0.95466,0.31867 -1.48666,0.42667 -1.96934,0.42133 -3.79734,0.0227 -5.48534,-1.19734 -1.57733,-1.11733 -2.76266,-2.708 -3.556,-4.772 -0.824,-2.14933 -1.02,-4.156 -0.58666,-6.02133 0.51066,-2.15733 1.8,-3.63333 3.864,-4.42667 2.37733,-0.912 4.38933,-0.908 6.036,0.016 1.132,0.64267 2.04133,1.73067 2.724,3.26267 0.55066,1.248 0.65466,2.452 0.31066,3.61333 -0.36133,1.24 -1.13866,2.11334 -2.33333,2.61867 -1.01333,0.41333 -1.968,0.45067 -2.864,0.11333 -0.896,-0.34 -1.50933,-0.97066 -1.84133,-1.896 -0.30667,-0.864 -0.248,-1.70533 0.18,-2.528 0.42533,-0.82133 1.088,-1.404 1.984,-1.74933 l 1.37733,-0.528 -0.72133,-1.87733 -7.44534,2.85866 0.72,1.87734 2.19067,-0.84134 c -0.87867,1.39067 -1.08267,2.91734 -0.612,4.57867 0.52133,1.85733 1.6,3.172 3.236,3.944 1.63733,0.77067 3.416,0.764 5.34133,-0.0213 1.88134,-0.77067 3.12534,-2.14534 3.72934,-4.124 0.56533,-1.89334 0.448,-3.88134 -0.352,-5.968 -0.96934,-2.52267 -2.62,-4.28267 -4.952,-5.27734 -2.33334,-0.996 -4.77067,-1.00533 -7.316,-0.028 -3.024,1.16134 -5.08454,3.02267 -6.18294,5.58667 -1.098,2.56267 -1.11146,5.30267 -0.0396,8.21733 1.0948,2.97734 2.89987,5.156 5.41587,6.536 2.652,1.42267 5.448,1.56934 8.38933,0.44 4.296,-1.64933 6.57467,-4.47333 6.83334,-8.47333 l -2.31467,0.888 c -0.55467,2.296 -1.96933,3.87867 -4.24267,4.752"
         inkscape:connector-curvature="0" /></g></g></svg>